<svg width="51" height="51" viewBox="0 0 51 51" fill="none" xmlns="http://www.w3.org/2000/svg">
<path fill-rule="evenodd" clip-rule="evenodd" d="M15 0C6.71573 0 0 6.71573 0 15V36C0 44.2843 6.71573 51 15 51H36C44.2843 51 51 44.2843 51 36V15C51 6.71573 44.2843 0 36 0H15ZM31.4516 9.62282C34.4259 10.1364 37.2706 11.0332 39.9234 12.2504C39.9463 12.2603 39.966 12.2769 39.9775 12.3C44.6776 19.2133 46.999 27.0119 46.1312 35.9897C46.1279 36.0277 46.1082 36.0624 46.077 36.0855C42.517 38.6998 39.0686 40.287 35.6678 41.339C35.6136 41.3555 35.5546 41.3357 35.5218 41.2895C34.736 40.1961 34.0223 39.0434 33.3973 37.8328C33.3612 37.7618 33.394 37.6759 33.4678 37.6478C34.6014 37.2201 35.6793 36.7081 36.7161 36.102C36.7981 36.0541 36.803 35.9368 36.7276 35.8807C36.5078 35.7172 36.2896 35.5454 36.0812 35.3736C36.0419 35.3423 35.9893 35.3357 35.945 35.3571C29.2139 38.467 21.8396 38.467 15.0282 35.3571C14.9838 35.3373 14.9313 35.3439 14.8936 35.3753C14.6853 35.5471 14.467 35.7172 14.2489 35.8807C14.1734 35.9368 14.18 36.0541 14.262 36.102C15.2988 36.6965 16.3767 37.2201 17.5086 37.6495C17.5824 37.6776 17.6169 37.7618 17.5808 37.8328C16.9689 39.0451 16.2553 40.1978 15.4547 41.2911C15.4202 41.3357 15.3628 41.3555 15.3087 41.339C11.9243 40.287 8.47581 38.6998 4.91583 36.0855C4.8863 36.0624 4.86498 36.026 4.86169 35.9881C4.13658 28.2225 5.6147 20.3595 11.0105 12.2983C11.0235 12.2769 11.0432 12.2603 11.0662 12.2504C13.7206 11.0316 16.5653 10.1348 19.538 9.62282C19.5921 9.61456 19.6462 9.63933 19.6741 9.68723C20.0416 10.3379 20.4616 11.172 20.7454 11.854C23.8789 11.3751 27.0615 11.3751 30.2606 11.854C30.5443 11.1868 30.9496 10.3379 31.3154 9.68723C31.3433 9.63768 31.3975 9.61291 31.4516 9.62282ZM14.8575 27.0648C14.8575 29.3769 16.5473 31.2596 18.598 31.2596C20.6814 31.2596 22.3384 29.3769 22.3384 27.0648C22.3712 24.7691 20.6978 22.8699 18.598 22.8699C16.5145 22.8699 14.8575 24.7526 14.8575 27.0648ZM28.6873 27.0648C28.6873 29.3769 30.377 31.2596 32.4277 31.2596C34.5276 31.2596 36.1682 29.3769 36.1682 27.0648C36.201 24.7691 34.5276 22.8699 32.4277 22.8699C30.3442 22.8699 28.6873 24.7526 28.6873 27.0648Z" fill="#E2E2E2"/>
</svg>
