<svg width="51" height="51" viewBox="0 0 51 51" fill="none" xmlns="http://www.w3.org/2000/svg">
<path fill-rule="evenodd" clip-rule="evenodd" d="M15 0C6.71573 0 0 6.71573 0 15V36C0 44.2843 6.71573 51 15 51H36C44.2843 51 51 44.2843 51 36V15C51 6.71573 44.2843 0 36 0H15ZM6.64826 9.09641C6.92681 9.09641 6.98576 9.08797 6.98576 9.04826C6.98576 9.0054 9.06431 9 25.5 9C41.9357 9 44.0142 9.0054 44.0142 9.04826C44.0142 9.08865 44.0839 9.09641 44.4483 9.09641H44.8822V9.17674C44.8822 9.25177 44.8929 9.25718 45.0428 9.25718C45.1929 9.25718 45.2036 9.26246 45.2036 9.3375C45.2036 9.41344 45.2133 9.41782 45.3803 9.41782C45.5475 9.41782 45.5572 9.42221 45.5572 9.49826C45.5572 9.57319 45.5679 9.57859 45.7178 9.57859C45.875 9.57859 45.8786 9.58072 45.8786 9.675C45.8786 9.75645 45.8911 9.77141 45.9589 9.77141C46.0233 9.77141 46.0392 9.7875 46.0392 9.85174C46.0392 9.92779 46.0489 9.93217 46.2161 9.93217C46.3833 9.93217 46.3928 9.93656 46.3928 10.0125C46.3928 10.0767 46.4089 10.0928 46.4733 10.0928C46.5368 10.0928 46.5536 10.1091 46.5536 10.1707C46.5536 10.231 46.5753 10.2533 46.65 10.2697C46.7247 10.2861 46.7464 10.3083 46.7464 10.3687C46.7464 10.4302 46.7632 10.4464 46.8267 10.4464C46.8911 10.4464 46.9072 10.4625 46.9072 10.5267C46.9072 10.5911 46.9233 10.6072 46.9875 10.6072C47.0517 10.6072 47.0678 10.6233 47.0678 10.6875C47.0678 10.7517 47.0839 10.7678 47.1483 10.7678C47.2242 10.7678 47.2286 10.7775 47.2286 10.9447C47.2286 11.1196 47.2296 11.1214 47.325 11.1214C47.4064 11.1214 47.4214 11.1339 47.4214 11.2017C47.4214 11.2661 47.4375 11.2822 47.5017 11.2822C47.5778 11.2822 47.5822 11.2917 47.5822 11.4589C47.5822 11.6261 47.5866 11.6358 47.6625 11.6358C47.741 11.6358 47.7428 11.641 47.7428 11.8767C47.7428 12.1125 47.7446 12.1178 47.8233 12.1178C47.9022 12.1178 47.9036 12.1221 47.9036 12.375C47.9036 12.5821 47.9129 12.6322 47.9517 12.6322C47.9946 12.6322 48 14.016 48 24.8947C48 35.7732 47.9946 37.1572 47.9517 37.1572C47.912 37.1572 47.9036 37.2161 47.9036 37.4947V37.8322H47.8233C47.7442 37.8322 47.7428 37.8365 47.7428 38.0892C47.7428 38.3421 47.7415 38.3464 47.6625 38.3464C47.5866 38.3464 47.5822 38.3561 47.5822 38.5233C47.5822 38.6903 47.5778 38.7 47.5017 38.7C47.4268 38.7 47.4214 38.7107 47.4214 38.8608C47.4214 39.0178 47.4193 39.0214 47.325 39.0214C47.2435 39.0214 47.2286 39.0339 47.2286 39.1017C47.2286 39.1661 47.2125 39.1822 47.1483 39.1822C47.0803 39.1822 47.0678 39.1971 47.0678 39.2786C47.0678 39.36 47.0553 39.375 46.9875 39.375C46.9125 39.375 46.9072 39.3857 46.9072 39.5358C46.9072 39.6846 46.9013 39.6964 46.8289 39.6964C46.7674 39.6964 46.7485 39.7154 46.7406 39.7848C46.7326 39.8542 46.7114 39.8754 46.642 39.8834C46.5725 39.8914 46.5536 39.9104 46.5536 39.9718C46.5536 40.0443 46.5417 40.05 46.3928 40.05C46.2429 40.05 46.2322 40.0554 46.2322 40.1303C46.2322 40.1982 46.2171 40.2108 46.1358 40.2108C46.0543 40.2108 46.0392 40.2233 46.0392 40.2911C46.0392 40.3553 46.0233 40.3714 45.9589 40.3714C45.8911 40.3714 45.8786 40.3864 45.8786 40.4678C45.8786 40.5621 45.875 40.5642 45.7178 40.5642C45.5679 40.5642 45.5572 40.5696 45.5572 40.6447C45.5572 40.7206 45.5475 40.725 45.3803 40.725C45.2133 40.725 45.2036 40.7294 45.2036 40.8053C45.2036 40.8844 45.1993 40.8858 44.9464 40.8858C44.6936 40.8858 44.6892 40.887 44.6892 40.9661V41.0464H44.3517C44.0732 41.0464 44.0142 41.0549 44.0142 41.0947C44.0142 41.1374 41.9447 41.1428 25.5803 41.1428C9.21607 41.1428 7.14641 41.1374 7.14641 41.0947C7.14641 41.0543 7.07858 41.0464 6.72859 41.0464H6.31076V40.9661C6.31076 40.887 6.30638 40.8858 6.05359 40.8858C5.80069 40.8858 5.79641 40.8844 5.79641 40.8053C5.79641 40.7294 5.78674 40.725 5.61967 40.725C5.4525 40.725 5.44282 40.7206 5.44282 40.6447C5.44282 40.5696 5.43214 40.5642 5.28218 40.5642C5.12501 40.5642 5.12141 40.5621 5.12141 40.4678C5.12141 40.3864 5.10892 40.3714 5.04109 40.3714C4.97674 40.3714 4.96076 40.3553 4.96076 40.2911C4.96076 40.2233 4.94569 40.2108 4.86424 40.2108C4.7829 40.2108 4.76783 40.1982 4.76783 40.1303C4.76783 40.0554 4.75714 40.05 4.60717 40.05C4.4571 40.05 4.44641 40.0446 4.44641 39.9697C4.44641 39.9061 4.43021 39.8892 4.36868 39.8892C4.30826 39.8892 4.2861 39.8676 4.26967 39.7928C4.25325 39.7181 4.23098 39.6964 4.17067 39.6964C4.09867 39.6964 4.09282 39.6843 4.09282 39.5358C4.09282 39.3857 4.08754 39.375 4.0125 39.375C3.94466 39.375 3.93217 39.36 3.93217 39.2786C3.93217 39.1971 3.91969 39.1822 3.85174 39.1822C3.7875 39.1822 3.77141 39.1661 3.77141 39.1017C3.77141 39.0339 3.75645 39.0214 3.675 39.0214C3.58072 39.0214 3.57859 39.0178 3.57859 38.8608C3.57859 38.7107 3.57319 38.7 3.49826 38.7C3.42221 38.7 3.41782 38.6903 3.41782 38.5233C3.41782 38.3561 3.41344 38.3464 3.3375 38.3464C3.25852 38.3464 3.25717 38.3421 3.25717 38.0892C3.25717 37.8365 3.25583 37.8322 3.17674 37.8322H3.09641V37.4947C3.09641 37.2161 3.08798 37.1572 3.04826 37.1572C3.0054 37.1572 3 35.7929 3 25.0714C3 14.35 3.0054 12.9858 3.04826 12.9858C3.08798 12.9858 3.09641 12.9268 3.09641 12.6483V12.3108H3.17674C3.25583 12.3108 3.25717 12.3064 3.25717 12.0536C3.25717 11.8007 3.25852 11.7964 3.3375 11.7964C3.41344 11.7964 3.41782 11.7867 3.41782 11.6197C3.41782 11.4525 3.42221 11.4428 3.49826 11.4428C3.57319 11.4428 3.57859 11.4321 3.57859 11.2822C3.57859 11.125 3.58072 11.1214 3.675 11.1214C3.75645 11.1214 3.77141 11.1089 3.77141 11.0411C3.77141 10.9767 3.7875 10.9608 3.85174 10.9608C3.91969 10.9608 3.93217 10.9457 3.93217 10.8642C3.93217 10.7829 3.94466 10.7678 4.0125 10.7678C4.08754 10.7678 4.09282 10.7571 4.09282 10.6072C4.09282 10.4591 4.0989 10.4464 4.16978 10.4464C4.22479 10.4464 4.25224 10.4238 4.26664 10.3665C4.27901 10.3173 4.31726 10.279 4.36654 10.2666C4.4238 10.2522 4.44641 10.2248 4.44641 10.1698C4.44641 10.0989 4.45913 10.0928 4.60717 10.0928C4.75714 10.0928 4.76783 10.0875 4.76783 10.0125C4.76783 9.94466 4.7829 9.93217 4.86424 9.93217C4.94569 9.93217 4.96076 9.91969 4.96076 9.85174C4.96076 9.7875 4.97674 9.77141 5.04109 9.77141C5.10892 9.77141 5.12141 9.75645 5.12141 9.675C5.12141 9.58072 5.12501 9.57859 5.28218 9.57859C5.43214 9.57859 5.44282 9.57319 5.44282 9.49826C5.44282 9.42221 5.4525 9.41782 5.61967 9.41782C5.78674 9.41782 5.79641 9.41344 5.79641 9.3375C5.79641 9.25852 5.80069 9.25718 6.05359 9.25718C6.30638 9.25718 6.31076 9.25583 6.31076 9.17674V9.09641H6.64826ZM42.941 11.7964C43.0015 11.7964 43.0178 11.7794 43.0178 11.7161V11.6358H25.5H7.98217V11.7161C7.98217 11.7839 7.99714 11.7964 8.07859 11.7964C8.16004 11.7964 8.175 11.8089 8.175 11.8767C8.175 11.9411 8.19109 11.9572 8.25533 11.9572C8.31967 11.9572 8.33576 11.9733 8.33576 12.0375C8.33576 12.1017 8.35174 12.1178 8.41609 12.1178C8.48392 12.1178 8.49641 12.1329 8.49641 12.2142C8.49641 12.2957 8.5089 12.3108 8.57674 12.3108C8.64052 12.3108 8.65718 12.327 8.65718 12.389C8.65718 12.4504 8.67607 12.4694 8.74549 12.4774C8.80882 12.4846 8.83684 12.5081 8.84415 12.5598C8.85169 12.6122 8.8761 12.6322 8.93258 12.6322C8.99389 12.6322 9.01076 12.6489 9.01076 12.7102C9.01076 12.7668 9.03067 12.7913 9.08299 12.7987C9.13485 12.806 9.15825 12.834 9.16556 12.8973C9.17355 12.9668 9.19245 12.9858 9.25387 12.9858C9.31598 12.9858 9.33217 13.0024 9.33217 13.0661C9.33217 13.1339 9.34714 13.1464 9.42859 13.1464C9.51004 13.1464 9.525 13.1589 9.525 13.2267C9.525 13.2911 9.54109 13.3072 9.60532 13.3072C9.66945 13.3072 9.68576 13.3233 9.68576 13.3869C9.68576 13.4451 9.70736 13.4721 9.76609 13.4868C9.8238 13.5012 9.84641 13.5287 9.84641 13.5838C9.84641 13.6445 9.86351 13.6608 9.92674 13.6608C9.99109 13.6608 10.0072 13.6767 10.0072 13.7411C10.0072 13.8089 10.0221 13.8214 10.1036 13.8214C10.185 13.8214 10.2 13.8339 10.2 13.9017C10.2 13.9661 10.2161 13.9822 10.2803 13.9822C10.3482 13.9822 10.3608 13.9971 10.3608 14.0786C10.3608 14.16 10.3733 14.175 10.4411 14.175C10.5053 14.175 10.5214 14.1911 10.5214 14.2553C10.5214 14.3197 10.5375 14.3358 10.6017 14.3358C10.6661 14.3358 10.6822 14.3517 10.6822 14.4161C10.6822 14.4839 10.6971 14.4964 10.7786 14.4964C10.86 14.4964 10.875 14.5089 10.875 14.5767C10.875 14.6411 10.8911 14.6572 10.9553 14.6572C11.0232 14.6572 11.0358 14.6721 11.0358 14.7536C11.0358 14.835 11.0482 14.85 11.1161 14.85C11.1803 14.85 11.1964 14.8661 11.1964 14.9303C11.1964 14.9982 11.2114 15.0108 11.2928 15.0108C11.3743 15.0108 11.3892 15.0232 11.3892 15.0911C11.3892 15.1553 11.4053 15.1714 11.4697 15.1714C11.5339 15.1714 11.55 15.1875 11.55 15.2517C11.55 15.3161 11.5661 15.3322 11.6303 15.3322C11.6982 15.3322 11.7108 15.3471 11.7108 15.4286C11.7108 15.51 11.7232 15.525 11.7911 15.525C11.8548 15.525 11.8714 15.5412 11.8714 15.6032C11.8714 15.6646 11.8904 15.6836 11.9598 15.6916C12.0231 15.6989 12.0512 15.7223 12.0585 15.7741C12.0659 15.8265 12.0903 15.8464 12.1469 15.8464C12.2082 15.8464 12.225 15.8633 12.225 15.9246C12.225 15.9811 12.245 16.0055 12.2973 16.0129C12.3491 16.0203 12.3725 16.0483 12.3798 16.1116C12.3878 16.181 12.4068 16.2 12.4682 16.2C12.5302 16.2 12.5464 16.2167 12.5464 16.2803C12.5464 16.3482 12.5614 16.3608 12.6428 16.3608C12.7243 16.3608 12.7392 16.3732 12.7392 16.4411C12.7392 16.5053 12.7553 16.5214 12.8197 16.5214C12.8838 16.5214 12.9 16.5375 12.9 16.6012C12.9 16.6595 12.9216 16.6863 12.9803 16.7011C13.038 16.7156 13.0608 16.7429 13.0608 16.7982C13.0608 16.8587 13.0777 16.875 13.1411 16.875C13.2053 16.875 13.2214 16.8911 13.2214 16.9553C13.2214 17.0232 13.2364 17.0358 13.3178 17.0358C13.3993 17.0358 13.4142 17.0483 13.4142 17.1161C13.4142 17.1803 13.4303 17.1964 13.4947 17.1964C13.5625 17.1964 13.575 17.2114 13.575 17.2928C13.575 17.3743 13.5875 17.3892 13.6553 17.3892C13.7197 17.3892 13.7358 17.4053 13.7358 17.4697C13.7358 17.5339 13.7517 17.55 13.8161 17.55C13.8803 17.55 13.8964 17.5661 13.8964 17.6303C13.8964 17.6982 13.9114 17.7108 13.9928 17.7108C14.0743 17.7108 14.0892 17.7232 14.0892 17.7911C14.0892 17.8553 14.1053 17.8714 14.1697 17.8714C14.2375 17.8714 14.25 17.8864 14.25 17.9678C14.25 18.0493 14.2625 18.0642 14.3303 18.0642C14.3947 18.0642 14.4108 18.0803 14.4108 18.1447C14.4108 18.2125 14.4257 18.225 14.5072 18.225C14.5886 18.225 14.6036 18.2375 14.6036 18.3053C14.6036 18.3697 14.6197 18.3858 14.6839 18.3858C14.7483 18.3858 14.7642 18.4017 14.7642 18.4661C14.7642 18.5303 14.7803 18.5464 14.8447 18.5464C14.9125 18.5464 14.925 18.5614 14.925 18.6428C14.925 18.7243 14.9375 18.7392 15.0053 18.7392C15.0691 18.7392 15.0858 18.7556 15.0858 18.8175C15.0858 18.879 15.1047 18.8979 15.1741 18.9058C15.2374 18.9132 15.2654 18.9366 15.2727 18.9884C15.2802 19.0407 15.3046 19.0608 15.3612 19.0608C15.4225 19.0608 15.4392 19.0775 15.4392 19.1388C15.4392 19.1954 15.4593 19.2198 15.5116 19.2273C15.5634 19.2346 15.5868 19.2626 15.5941 19.3259C15.6021 19.3953 15.621 19.4142 15.6825 19.4142C15.7444 19.4142 15.7608 19.4309 15.7608 19.4947C15.7608 19.5625 15.7757 19.575 15.8572 19.575C15.9386 19.575 15.9536 19.5875 15.9536 19.6553C15.9536 19.7197 15.9697 19.7358 16.0339 19.7358C16.098 19.7358 16.1142 19.7519 16.1142 19.8154C16.1142 19.8737 16.136 19.9007 16.1947 19.9154C16.2524 19.9298 16.275 19.9573 16.275 20.0124C16.275 20.073 16.292 20.0892 16.3553 20.0892C16.4197 20.0892 16.4358 20.1053 16.4358 20.1697C16.4358 20.2375 16.4507 20.25 16.5322 20.25C16.6136 20.25 16.6286 20.2625 16.6286 20.3303C16.6286 20.3947 16.6447 20.4108 16.7089 20.4108C16.7768 20.4108 16.7892 20.4257 16.7892 20.5072C16.7892 20.5886 16.8018 20.6036 16.8697 20.6036C16.9339 20.6036 16.95 20.6197 16.95 20.6839C16.95 20.7483 16.9661 20.7642 17.0303 20.7642C17.0947 20.7642 17.1108 20.7803 17.1108 20.8447C17.1108 20.9125 17.1257 20.925 17.2072 20.925C17.2886 20.925 17.3036 20.9375 17.3036 21.0053C17.3036 21.0804 17.3143 21.0858 17.4642 21.0858H17.625V21.2625C17.625 21.4375 17.626 21.4392 17.7214 21.4392C17.8029 21.4392 17.8178 21.4518 17.8178 21.5197C17.8178 21.5839 17.8339 21.6 17.8983 21.6C17.9625 21.6 17.9786 21.6161 17.9786 21.6803C17.9786 21.7554 17.9893 21.7608 18.1392 21.7608C18.2964 21.7608 18.3 21.7629 18.3 21.8572C18.3 21.9429 18.3107 21.9536 18.3964 21.9536C18.4907 21.9536 18.4928 21.9572 18.4928 22.1142C18.4928 22.2643 18.4982 22.275 18.5733 22.275C18.6375 22.275 18.6536 22.2911 18.6536 22.3553C18.6536 22.4304 18.6643 22.4358 18.8142 22.4358C18.9714 22.4358 18.975 22.4379 18.975 22.5322C18.975 22.6179 18.9857 22.6286 19.0714 22.6286C19.1657 22.6286 19.1678 22.6322 19.1678 22.7892C19.1678 22.9393 19.1732 22.95 19.2483 22.95C19.3125 22.95 19.3286 22.9661 19.3286 23.0303C19.3286 23.1004 19.3426 23.1108 19.4384 23.1108C19.5973 23.1108 19.65 23.1396 19.65 23.2266C19.65 23.2906 19.6662 23.3036 19.7464 23.3036C19.8279 23.3036 19.8428 23.3161 19.8428 23.3839C19.8428 23.4483 19.8589 23.4642 19.9233 23.4642C19.9875 23.4642 20.0036 23.4803 20.0036 23.5447C20.0036 23.6089 20.0197 23.625 20.0839 23.625C20.1517 23.625 20.1642 23.64 20.1642 23.7214C20.1642 23.8029 20.1768 23.8178 20.2447 23.8178C20.3089 23.8178 20.325 23.8339 20.325 23.8983C20.325 23.9661 20.34 23.9786 20.4214 23.9786C20.5029 23.9786 20.5178 23.9911 20.5178 24.0589C20.5178 24.1233 20.5339 24.1392 20.5983 24.1392C20.6625 24.1392 20.6786 24.1553 20.6786 24.2197C20.6786 24.2839 20.6947 24.3 20.7589 24.3C20.8267 24.3 20.8392 24.315 20.8392 24.3964C20.8392 24.4821 20.85 24.4928 20.9358 24.4928C21.0171 24.4928 21.0322 24.5053 21.0322 24.5733C21.0322 24.6375 21.0483 24.6536 21.1125 24.6536C21.1767 24.6536 21.1928 24.6697 21.1928 24.7339C21.1928 24.7983 21.2089 24.8142 21.2733 24.8142C21.3375 24.8142 21.3536 24.8303 21.3536 24.8947C21.3536 24.9589 21.3697 24.975 21.4339 24.975C21.5017 24.975 21.5142 24.99 21.5142 25.0714C21.5142 25.1571 21.525 25.1678 21.6108 25.1678C21.6921 25.1678 21.7072 25.1803 21.7072 25.2483C21.7072 25.3125 21.7233 25.3286 21.7875 25.3286C21.8517 25.3286 21.8678 25.3447 21.8678 25.4089C21.8678 25.4733 21.8839 25.4892 21.9483 25.4892C22.0125 25.4892 22.0286 25.5053 22.0286 25.5697C22.0286 25.6339 22.0447 25.65 22.1089 25.65C22.1767 25.65 22.1892 25.665 22.1892 25.7464C22.1892 25.8321 22.2 25.8428 22.2858 25.8428C22.3671 25.8428 22.3822 25.8553 22.3822 25.9233C22.3822 25.9875 22.3983 26.0036 22.4625 26.0036C22.5267 26.0036 22.5428 26.0197 22.5428 26.0839C22.5428 26.1483 22.5589 26.1642 22.6233 26.1642C22.6865 26.1642 22.7036 26.1805 22.7036 26.2412C22.7036 26.2963 22.7262 26.3238 22.7839 26.3382C22.8426 26.3529 22.8642 26.3799 22.8642 26.4381C22.8642 26.5053 22.8795 26.5178 22.9608 26.5178C23.0421 26.5178 23.0572 26.5303 23.0572 26.5983C23.0572 26.6625 23.0733 26.6786 23.1375 26.6786C23.2017 26.6786 23.2178 26.6947 23.2178 26.7589C23.2178 26.8233 23.2339 26.8392 23.2983 26.8392C23.3661 26.8392 23.3786 26.8543 23.3786 26.9358C23.3786 27.0171 23.3911 27.0322 23.4589 27.0322C23.5233 27.0322 23.5392 27.0483 23.5392 27.1125C23.5392 27.1803 23.5543 27.1928 23.6358 27.1928C23.7171 27.1928 23.7322 27.2053 23.7322 27.2733C23.7322 27.3375 23.7483 27.3536 23.8125 27.3536C23.8767 27.3536 23.8928 27.3697 23.8928 27.4339C23.8928 27.4983 23.9089 27.5142 23.9733 27.5142C24.0411 27.5142 24.0536 27.5293 24.0536 27.6108C24.0536 27.6964 24.0643 27.7072 24.15 27.7072C24.2314 27.7072 24.2464 27.7197 24.2464 27.7875C24.2464 27.8517 24.2625 27.8678 24.3267 27.8678C24.3911 27.8678 24.4072 27.8839 24.4072 27.9483C24.4072 28.0125 24.4233 28.0286 24.4875 28.0286C24.5517 28.0286 24.5678 28.0447 24.5678 28.1089C24.5678 28.1733 24.5839 28.1892 24.6483 28.1892C24.7161 28.1892 24.7286 28.2043 24.7286 28.2858C24.7286 28.3714 24.7393 28.3822 24.825 28.3822C24.9065 28.3822 24.9214 28.3947 24.9214 28.4625C24.9214 28.5267 24.9375 28.5428 25.0017 28.5428C25.0661 28.5428 25.0822 28.5589 25.0822 28.6233C25.0822 28.6875 25.0983 28.7036 25.1625 28.7036C25.2267 28.7036 25.2428 28.7197 25.2428 28.7839V28.8642H25.5803H25.9178V28.7839C25.9178 28.7202 25.934 28.7036 25.996 28.7036C26.0525 28.7036 26.0769 28.6836 26.0843 28.6313C26.0917 28.5795 26.1198 28.556 26.183 28.5488C26.2525 28.5408 26.2714 28.5218 26.2714 28.4604C26.2714 28.3984 26.2881 28.3822 26.3517 28.3822C26.4197 28.3822 26.4322 28.3671 26.4322 28.2858C26.4322 28.2043 26.4447 28.1892 26.5125 28.1892C26.5767 28.1892 26.5928 28.1733 26.5928 28.1089C26.5928 28.0448 26.609 28.0286 26.6726 28.0286C26.7309 28.0286 26.7577 28.0069 26.7725 27.9483C26.787 27.8905 26.8143 27.8678 26.8696 27.8678C26.9301 27.8678 26.9464 27.8508 26.9464 27.7875C26.9464 27.7233 26.9625 27.7072 27.0267 27.7072C27.0947 27.7072 27.1072 27.6921 27.1072 27.6108C27.1072 27.5293 27.1197 27.5142 27.1875 27.5142C27.2517 27.5142 27.2678 27.4983 27.2678 27.4339C27.2678 27.3661 27.2829 27.3536 27.3642 27.3536C27.4457 27.3536 27.4608 27.3411 27.4608 27.2733C27.4608 27.2089 27.4767 27.1928 27.5411 27.1928C27.6053 27.1928 27.6214 27.1767 27.6214 27.1125C27.6214 27.0483 27.6375 27.0322 27.7017 27.0322C27.7697 27.0322 27.7822 27.0171 27.7822 26.9358C27.7822 26.8543 27.7947 26.8392 27.8625 26.8392C27.9267 26.8392 27.9428 26.8233 27.9428 26.7589C27.9428 26.6911 27.9579 26.6786 28.0392 26.6786C28.1207 26.6786 28.1358 26.6661 28.1358 26.5983C28.1358 26.5339 28.1517 26.5178 28.2161 26.5178C28.2794 26.5178 28.2964 26.5015 28.2964 26.441C28.2964 26.3857 28.3191 26.3584 28.3767 26.3439C28.4355 26.3292 28.4572 26.3023 28.4572 26.244C28.4572 26.1804 28.4734 26.1642 28.5375 26.1642C28.6017 26.1642 28.6178 26.1483 28.6178 26.0839C28.6178 26.0161 28.6329 26.0036 28.7142 26.0036C28.7957 26.0036 28.8108 25.9911 28.8108 25.9233C28.8108 25.8595 28.827 25.8428 28.8889 25.8428C28.9504 25.8428 28.9694 25.8239 28.9774 25.7545C28.9846 25.6912 29.0081 25.6632 29.0598 25.6558C29.1122 25.6483 29.1322 25.6239 29.1322 25.5674C29.1322 25.5061 29.1489 25.4892 29.2102 25.4892C29.2668 25.4892 29.2913 25.4693 29.2987 25.417C29.306 25.3652 29.334 25.3418 29.3973 25.3344C29.4667 25.3265 29.4858 25.3076 29.4858 25.2461C29.4858 25.184 29.5024 25.1678 29.5661 25.1678C29.6339 25.1678 29.6464 25.1529 29.6464 25.0714C29.6464 24.99 29.6589 24.975 29.7267 24.975C29.7911 24.975 29.8072 24.9589 29.8072 24.8947C29.8072 24.8305 29.8233 24.8142 29.8869 24.8142C29.9451 24.8142 29.9721 24.7926 29.9868 24.7339C30.0012 24.6762 30.0287 24.6536 30.0838 24.6536C30.1444 24.6536 30.1608 24.6365 30.1608 24.5733C30.1608 24.5089 30.1767 24.4928 30.2411 24.4928C30.3089 24.4928 30.3214 24.4779 30.3214 24.3964C30.3214 24.315 30.3339 24.3 30.4017 24.3C30.4661 24.3 30.4822 24.2839 30.4822 24.2197C30.4822 24.1518 30.4971 24.1392 30.5786 24.1392C30.66 24.1392 30.675 24.1267 30.675 24.0589C30.675 23.9947 30.6911 23.9786 30.7553 23.9786C30.8197 23.9786 30.8358 23.9625 30.8358 23.8983C30.8358 23.8339 30.8517 23.8178 30.9161 23.8178C30.9839 23.8178 30.9964 23.8029 30.9964 23.7214C30.9964 23.64 31.0089 23.625 31.0767 23.625C31.1411 23.625 31.1572 23.6089 31.1572 23.5447C31.1572 23.4768 31.1721 23.4642 31.2536 23.4642C31.335 23.4642 31.35 23.4517 31.35 23.3839C31.35 23.3197 31.3661 23.3036 31.4303 23.3036C31.4937 23.3036 31.5108 23.2873 31.5108 23.2267C31.5108 23.1715 31.5334 23.1442 31.5911 23.1297C31.6498 23.1149 31.6714 23.088 31.6714 23.0298C31.6714 22.9661 31.6876 22.95 31.7517 22.95C31.8161 22.95 31.8322 22.9339 31.8322 22.8697C31.8322 22.8018 31.8471 22.7892 31.9286 22.7892C32.01 22.7892 32.025 22.7768 32.025 22.7089C32.025 22.6452 32.0412 22.6286 32.1032 22.6286C32.1646 22.6286 32.1836 22.6096 32.1916 22.5402C32.1989 22.4769 32.2223 22.4488 32.2741 22.4415C32.3265 22.4341 32.3464 22.4097 32.3464 22.3531C32.3464 22.2918 32.3633 22.275 32.4246 22.275C32.4811 22.275 32.5055 22.255 32.5129 22.2027C32.5203 22.1509 32.5483 22.1275 32.6116 22.1202C32.681 22.1122 32.7 22.0932 32.7 22.0318C32.7 21.9698 32.7166 21.9536 32.7803 21.9536C32.8482 21.9536 32.8608 21.9386 32.8608 21.8572C32.8608 21.7757 32.8732 21.7608 32.9411 21.7608C33.0053 21.7608 33.0214 21.7447 33.0214 21.6803C33.0214 21.6162 33.0375 21.6 33.1012 21.6C33.1595 21.6 33.1863 21.5784 33.2011 21.5197C33.2156 21.462 33.2429 21.4392 33.2982 21.4392C33.3587 21.4392 33.375 21.4223 33.375 21.3589C33.375 21.2947 33.3911 21.2786 33.4553 21.2786C33.5232 21.2786 33.5358 21.2636 33.5358 21.1822C33.5358 21.1007 33.5482 21.0858 33.6161 21.0858C33.6803 21.0858 33.6964 21.0697 33.6964 21.0053C33.6964 20.9375 33.7114 20.925 33.7928 20.925C33.8743 20.925 33.8892 20.9125 33.8892 20.8447C33.8892 20.7803 33.9053 20.7642 33.9697 20.7642C34.0339 20.7642 34.05 20.7483 34.05 20.6839C34.05 20.6197 34.0661 20.6036 34.1303 20.6036C34.1982 20.6036 34.2108 20.5886 34.2108 20.5072C34.2108 20.4257 34.2233 20.4108 34.2911 20.4108C34.3553 20.4108 34.3714 20.3947 34.3714 20.3303C34.3714 20.2625 34.3864 20.25 34.4678 20.25C34.5493 20.25 34.5642 20.2375 34.5642 20.1697C34.5642 20.1053 34.5803 20.0892 34.6447 20.0892C34.708 20.0892 34.725 20.073 34.725 20.0124C34.725 19.9573 34.7476 19.9298 34.8053 19.9154C34.864 19.9007 34.8858 19.8737 34.8858 19.8154C34.8858 19.7519 34.902 19.7358 34.9661 19.7358C35.0303 19.7358 35.0464 19.7197 35.0464 19.6553C35.0464 19.5875 35.0614 19.575 35.1428 19.575C35.2243 19.575 35.2392 19.5625 35.2392 19.4947C35.2392 19.4309 35.2556 19.4142 35.3175 19.4142C35.379 19.4142 35.3979 19.3953 35.4058 19.3259C35.4132 19.2626 35.4366 19.2346 35.4884 19.2273C35.5407 19.2198 35.5608 19.1954 35.5608 19.1388C35.5608 19.0775 35.5775 19.0608 35.6388 19.0608C35.6954 19.0608 35.7198 19.0407 35.7273 18.9884C35.7346 18.9366 35.7626 18.9132 35.8259 18.9058C35.8953 18.8979 35.9142 18.879 35.9142 18.8175C35.9142 18.7556 35.9309 18.7392 35.9947 18.7392C36.0625 18.7392 36.075 18.7243 36.075 18.6428C36.075 18.5614 36.0875 18.5464 36.1553 18.5464C36.2197 18.5464 36.2358 18.5303 36.2358 18.4661C36.2358 18.402 36.2519 18.3858 36.3154 18.3858C36.3737 18.3858 36.4007 18.364 36.4154 18.3053C36.4298 18.2476 36.4573 18.225 36.5124 18.225C36.573 18.225 36.5892 18.208 36.5892 18.1447C36.5892 18.0803 36.6053 18.0642 36.6697 18.0642C36.7375 18.0642 36.75 18.0493 36.75 17.9678C36.75 17.8864 36.7625 17.8714 36.8303 17.8714C36.8947 17.8714 36.9108 17.8553 36.9108 17.7911C36.9108 17.7232 36.9257 17.7108 37.0072 17.7108C37.0886 17.7108 37.1036 17.6982 37.1036 17.6303C37.1036 17.5661 37.1197 17.55 37.1839 17.55C37.2483 17.55 37.2642 17.5339 37.2642 17.4697C37.2642 17.4053 37.2803 17.3892 37.3447 17.3892C37.4125 17.3892 37.425 17.3743 37.425 17.2928C37.425 17.2114 37.4375 17.1964 37.5053 17.1964C37.5697 17.1964 37.5858 17.1803 37.5858 17.1161C37.5858 17.0483 37.6007 17.0358 37.6822 17.0358C37.7636 17.0358 37.7786 17.0232 37.7786 16.9553C37.7786 16.8911 37.7947 16.875 37.8589 16.875C37.9222 16.875 37.9392 16.8587 37.9392 16.7982C37.9392 16.7429 37.962 16.7156 38.0197 16.7011C38.0784 16.6863 38.1 16.6595 38.1 16.6012C38.1 16.5375 38.1162 16.5214 38.1803 16.5214C38.2447 16.5214 38.2608 16.5053 38.2608 16.4411C38.2608 16.3732 38.2757 16.3608 38.3572 16.3608C38.4386 16.3608 38.4536 16.3482 38.4536 16.2803C38.4536 16.2167 38.4698 16.2 38.5318 16.2C38.5932 16.2 38.6122 16.181 38.6202 16.1116C38.6275 16.0483 38.6509 16.0203 38.7027 16.0129C38.755 16.0055 38.775 15.9811 38.775 15.9246C38.775 15.8633 38.7918 15.8464 38.8531 15.8464C38.9097 15.8464 38.9341 15.8265 38.9415 15.7741C38.9488 15.7223 38.9769 15.6989 39.0402 15.6916C39.1096 15.6836 39.1286 15.6646 39.1286 15.6032C39.1286 15.5412 39.1452 15.525 39.2089 15.525C39.2767 15.525 39.2892 15.51 39.2892 15.4286C39.2892 15.3471 39.3018 15.3322 39.3697 15.3322C39.4339 15.3322 39.45 15.3161 39.45 15.2517C39.45 15.1876 39.4661 15.1714 39.5298 15.1714C39.588 15.1714 39.6149 15.1498 39.6297 15.0911C39.6442 15.0334 39.6715 15.0108 39.7267 15.0108C39.7873 15.0108 39.8036 14.9937 39.8036 14.9303C39.8036 14.8661 39.8197 14.85 39.8839 14.85C39.9517 14.85 39.9642 14.835 39.9642 14.7536C39.9642 14.6721 39.9768 14.6572 40.0447 14.6572C40.1089 14.6572 40.125 14.6411 40.125 14.5767C40.125 14.5089 40.14 14.4964 40.2214 14.4964C40.3029 14.4964 40.3178 14.4839 40.3178 14.4161C40.3178 14.3517 40.3339 14.3358 40.3983 14.3358C40.4625 14.3358 40.4786 14.3197 40.4786 14.2553C40.4786 14.1911 40.4947 14.175 40.5589 14.175C40.6267 14.175 40.6392 14.16 40.6392 14.0786C40.6392 13.9971 40.6518 13.9822 40.7197 13.9822C40.7839 13.9822 40.8 13.9661 40.8 13.9017C40.8 13.8339 40.815 13.8214 40.8964 13.8214C40.9779 13.8214 40.9928 13.8089 40.9928 13.7411C40.9928 13.6767 41.0089 13.6608 41.0733 13.6608C41.1365 13.6608 41.1536 13.6445 41.1536 13.5838C41.1536 13.5287 41.1762 13.5012 41.2339 13.4868C41.2926 13.4721 41.3142 13.4451 41.3142 13.3869C41.3142 13.3233 41.3306 13.3072 41.3947 13.3072C41.4589 13.3072 41.475 13.2911 41.475 13.2267C41.475 13.1589 41.49 13.1464 41.5714 13.1464C41.6529 13.1464 41.6678 13.1339 41.6678 13.0661C41.6678 13.0024 41.684 12.9858 41.7461 12.9858C41.8075 12.9858 41.8265 12.9668 41.8344 12.8973C41.8418 12.834 41.8651 12.806 41.917 12.7987C41.9693 12.7913 41.9892 12.7668 41.9892 12.7102C41.9892 12.6489 42.0061 12.6322 42.0674 12.6322C42.1239 12.6322 42.1483 12.6122 42.1558 12.5598C42.1632 12.5081 42.1912 12.4846 42.2545 12.4774C42.3239 12.4694 42.3428 12.4504 42.3428 12.389C42.3428 12.327 42.3595 12.3108 42.4233 12.3108C42.4911 12.3108 42.5036 12.2957 42.5036 12.2142C42.5036 12.1329 42.5161 12.1178 42.5839 12.1178C42.6483 12.1178 42.6642 12.1017 42.6642 12.0375C42.6642 11.9734 42.6804 11.9572 42.744 11.9572C42.8023 11.9572 42.8292 11.9355 42.8439 11.8767C42.8584 11.8191 42.8857 11.7964 42.941 11.7964ZM45.5572 36.8358V24.9108V12.9858H45.4608C45.3793 12.9858 45.3642 12.9983 45.3642 13.0661C45.3642 13.1303 45.3483 13.1464 45.2839 13.1464C45.2197 13.1464 45.2036 13.1625 45.2036 13.2267C45.2036 13.2911 45.1875 13.3072 45.1233 13.3072C45.0589 13.3072 45.0428 13.3233 45.0428 13.3875C45.0428 13.4512 45.0266 13.4678 44.9646 13.4678C44.9032 13.4678 44.8842 13.4868 44.8762 13.5562C44.8682 13.6257 44.8471 13.6468 44.7777 13.6548C44.7082 13.6628 44.6892 13.6818 44.6892 13.7432C44.6892 13.8052 44.6726 13.8214 44.6089 13.8214C44.5447 13.8214 44.5286 13.8375 44.5286 13.9017C44.5286 13.9661 44.5125 13.9822 44.4483 13.9822C44.3803 13.9822 44.3678 13.9971 44.3678 14.0786C44.3678 14.1593 44.3551 14.175 44.2897 14.175C44.2332 14.175 44.2088 14.195 44.2013 14.2473C44.194 14.2991 44.166 14.3225 44.1027 14.3298C44.0332 14.3378 44.0142 14.3568 44.0142 14.4182C44.0142 14.4802 43.9976 14.4964 43.9339 14.4964C43.8697 14.4964 43.8536 14.5125 43.8536 14.5767C43.8536 14.6405 43.8374 14.6572 43.7754 14.6572C43.7139 14.6572 43.695 14.6761 43.687 14.7455C43.6797 14.8088 43.6563 14.8368 43.6045 14.8441C43.5521 14.8517 43.5322 14.8761 43.5322 14.9326C43.5322 14.9979 43.5164 15.0108 43.4358 15.0108C43.3543 15.0108 43.3392 15.0232 43.3392 15.0911C43.3392 15.1553 43.3233 15.1714 43.2589 15.1714C43.1947 15.1714 43.1786 15.1875 43.1786 15.2517C43.1786 15.3155 43.1624 15.3322 43.1004 15.3322C43.0389 15.3322 43.02 15.3511 43.012 15.4205C43.004 15.49 42.9828 15.5112 42.9134 15.5191C42.844 15.5271 42.825 15.546 42.825 15.6075C42.825 15.6694 42.8083 15.6858 42.7447 15.6858C42.6803 15.6858 42.6642 15.7017 42.6642 15.7661C42.6642 15.8303 42.6483 15.8464 42.5839 15.8464C42.5197 15.8464 42.5036 15.8625 42.5036 15.9267C42.5036 15.9905 42.4874 16.0072 42.4254 16.0072C42.3639 16.0072 42.345 16.0261 42.337 16.0955C42.329 16.165 42.3078 16.1862 42.2384 16.1942C42.169 16.2021 42.15 16.221 42.15 16.2825C42.15 16.3444 42.1334 16.3608 42.0697 16.3608C42.0053 16.3608 41.9892 16.3767 41.9892 16.4411C41.9892 16.5053 41.9733 16.5214 41.9089 16.5214C41.8447 16.5214 41.8286 16.5375 41.8286 16.6017C41.8286 16.6655 41.8124 16.6822 41.7504 16.6822C41.6889 16.6822 41.67 16.7011 41.662 16.7705C41.654 16.84 41.6328 16.8612 41.5634 16.8692C41.494 16.8771 41.475 16.896 41.475 16.9575C41.475 17.0194 41.4584 17.0358 41.3947 17.0358C41.3303 17.0358 41.3142 17.0517 41.3142 17.1161C41.3142 17.1803 41.2983 17.1964 41.2339 17.1964C41.1661 17.1964 41.1536 17.2114 41.1536 17.2928C41.1536 17.3736 41.1409 17.3892 41.0754 17.3892C41.0189 17.3892 40.9945 17.4093 40.9871 17.4616C40.9797 17.5134 40.9516 17.5368 40.8884 17.5441C40.819 17.5521 40.8 17.571 40.8 17.6325C40.8 17.6945 40.7834 17.7108 40.7197 17.7108C40.6553 17.7108 40.6392 17.7267 40.6392 17.7911C40.6392 17.8548 40.623 17.8714 40.5611 17.8714C40.4996 17.8714 40.4806 17.8904 40.4726 17.9598C40.4654 18.0231 40.4419 18.0512 40.3902 18.0585C40.3378 18.0659 40.3178 18.0903 40.3178 18.1469C40.3178 18.2123 40.3021 18.225 40.2214 18.225C40.14 18.225 40.125 18.2375 40.125 18.3053C40.125 18.3697 40.1089 18.3858 40.0447 18.3858C39.9803 18.3858 39.9642 18.4017 39.9642 18.4661C39.9642 18.5298 39.948 18.5464 39.8861 18.5464C39.8246 18.5464 39.8056 18.5654 39.7976 18.6348C39.7896 18.7043 39.7685 18.7254 39.6991 18.7334C39.6297 18.7414 39.6108 18.7604 39.6108 18.8218C39.6108 18.8838 39.5941 18.9 39.5303 18.9C39.4661 18.9 39.45 18.9161 39.45 18.9803C39.45 19.0447 39.4339 19.0608 39.3697 19.0608C39.3053 19.0608 39.2892 19.0767 39.2892 19.1411C39.2892 19.2048 39.273 19.2214 39.211 19.2214C39.1496 19.2214 39.1306 19.2404 39.1226 19.3098C39.1146 19.3792 39.0935 19.4004 39.0241 19.4084C38.9547 19.4164 38.9358 19.4354 38.9358 19.4968C38.9358 19.5588 38.9191 19.575 38.8553 19.575C38.7911 19.575 38.775 19.5911 38.775 19.6553C38.775 19.7197 38.7589 19.7358 38.6947 19.7358C38.6303 19.7358 38.6142 19.7517 38.6142 19.8161C38.6142 19.8798 38.598 19.8964 38.536 19.8964C38.4746 19.8964 38.4556 19.9154 38.4476 19.9848C38.4396 20.0542 38.4185 20.0754 38.3491 20.0834C38.2797 20.0914 38.2608 20.1104 38.2608 20.1718C38.2608 20.2338 38.2441 20.25 38.1803 20.25C38.1161 20.25 38.1 20.2661 38.1 20.3303C38.1 20.3947 38.0839 20.4108 38.0197 20.4108C37.9518 20.4108 37.9392 20.4257 37.9392 20.5072C37.9392 20.5878 37.9265 20.6036 37.8612 20.6036C37.8046 20.6036 37.7802 20.6235 37.7727 20.6759C37.7654 20.7277 37.7374 20.7511 37.6741 20.7584C37.6047 20.7664 37.5858 20.7854 37.5858 20.8468C37.5858 20.9088 37.5691 20.925 37.5053 20.925C37.4411 20.925 37.425 20.9411 37.425 21.0053C37.425 21.0691 37.4088 21.0858 37.3468 21.0858C37.2854 21.0858 37.2664 21.1047 37.2584 21.1741C37.2511 21.2374 37.2277 21.2654 37.1759 21.2727C37.1235 21.2802 37.1036 21.3046 37.1036 21.3612C37.1036 21.4265 37.0878 21.4392 37.0072 21.4392C36.9257 21.4392 36.9108 21.4518 36.9108 21.5197C36.9108 21.5839 36.8947 21.6 36.8303 21.6C36.7661 21.6 36.75 21.6161 36.75 21.6803C36.75 21.7441 36.7338 21.7608 36.6718 21.7608C36.6104 21.7608 36.5914 21.7797 36.5834 21.8491C36.5754 21.9185 36.5542 21.9396 36.4848 21.9476C36.4154 21.9556 36.3964 21.9746 36.3964 22.036C36.3964 22.098 36.3798 22.1142 36.3161 22.1142C36.2517 22.1142 36.2358 22.1303 36.2358 22.1947C36.2358 22.2589 36.2197 22.275 36.1553 22.275C36.0911 22.275 36.075 22.2911 36.075 22.3553C36.075 22.4191 36.0588 22.4358 35.9968 22.4358C35.9354 22.4358 35.9164 22.4547 35.9084 22.5241C35.9004 22.5935 35.8792 22.6146 35.8098 22.6226C35.7404 22.6306 35.7214 22.6496 35.7214 22.7111C35.7214 22.773 35.7048 22.7892 35.6411 22.7892C35.5767 22.7892 35.5608 22.8053 35.5608 22.8697C35.5608 22.9339 35.5447 22.95 35.4803 22.95C35.4161 22.95 35.4 22.9661 35.4 23.0303C35.4 23.0941 35.3838 23.1108 35.3218 23.1108C35.2604 23.1108 35.2414 23.1297 35.2334 23.1991C35.2254 23.2685 35.2043 23.2896 35.1348 23.2976C35.0654 23.3056 35.0464 23.3246 35.0464 23.386C35.0464 23.448 35.0298 23.4642 34.9661 23.4642C34.9017 23.4642 34.8858 23.4803 34.8858 23.5447C34.8858 23.6089 34.8697 23.625 34.8053 23.625C34.7375 23.625 34.725 23.64 34.725 23.7214C34.725 23.8021 34.7123 23.8178 34.6469 23.8178C34.5903 23.8178 34.5659 23.8378 34.5585 23.8902C34.5512 23.9419 34.5231 23.9654 34.4598 23.9726C34.3904 23.9806 34.3714 23.9996 34.3714 24.0611C34.3714 24.123 34.3548 24.1392 34.2911 24.1392C34.2267 24.1392 34.2108 24.1553 34.2108 24.2197C34.2108 24.2833 34.1945 24.3 34.1325 24.3C34.071 24.3 34.0521 24.319 34.0441 24.3884C34.0368 24.4516 34.0134 24.4797 33.9616 24.4871C33.9093 24.4945 33.8892 24.5189 33.8892 24.5754C33.8892 24.6409 33.8736 24.6536 33.7928 24.6536C33.7114 24.6536 33.6964 24.6661 33.6964 24.7339C33.6964 24.7983 33.6803 24.8142 33.6161 24.8142C33.5517 24.8142 33.5358 24.8303 33.5358 24.8947C33.5358 24.9583 33.5195 24.975 33.4575 24.975C33.396 24.975 33.3771 24.994 33.3691 25.0634C33.3612 25.1328 33.34 25.154 33.2705 25.162C33.2011 25.17 33.1822 25.1889 33.1822 25.2504C33.1822 25.3124 33.1655 25.3286 33.1017 25.3286C33.0375 25.3286 33.0214 25.3447 33.0214 25.4089C33.0214 25.4733 33.0053 25.4892 32.9411 25.4892C32.8767 25.4892 32.8608 25.5053 32.8608 25.5697C32.8608 25.6333 32.8444 25.65 32.7825 25.65C32.721 25.65 32.7021 25.669 32.6941 25.7384C32.6862 25.8078 32.665 25.829 32.5955 25.837C32.5261 25.845 32.5072 25.8639 32.5072 25.9254C32.5072 25.9874 32.4905 26.0036 32.4267 26.0036C32.3625 26.0036 32.3464 26.0197 32.3464 26.0839C32.3464 26.1483 32.3303 26.1642 32.2661 26.1642C32.2017 26.1642 32.1858 26.1803 32.1858 26.2447C32.1858 26.3089 32.1697 26.325 32.1053 26.325C32.0375 26.325 32.025 26.34 32.025 26.4214C32.025 26.5029 32.0375 26.5178 32.1053 26.5178C32.1697 26.5178 32.1858 26.5339 32.1858 26.5983C32.1858 26.6625 32.2017 26.6786 32.2661 26.6786C32.3303 26.6786 32.3464 26.6947 32.3464 26.7589C32.3464 26.8233 32.3625 26.8392 32.4267 26.8392C32.4947 26.8392 32.5072 26.8543 32.5072 26.9358C32.5072 27.0214 32.5179 27.0322 32.6036 27.0322C32.685 27.0322 32.7 27.0447 32.7 27.1125C32.7 27.1767 32.7161 27.1928 32.7803 27.1928C32.8447 27.1928 32.8608 27.2089 32.8608 27.2733C32.8608 27.3375 32.8767 27.3536 32.9411 27.3536C33.0053 27.3536 33.0214 27.3697 33.0214 27.4339C33.0214 27.4983 33.0375 27.5142 33.1017 27.5142C33.1697 27.5142 33.1822 27.5293 33.1822 27.6108C33.1822 27.6964 33.1929 27.7072 33.2786 27.7072C33.36 27.7072 33.375 27.7197 33.375 27.7875C33.375 27.8517 33.3911 27.8678 33.4553 27.8678C33.5197 27.8678 33.5358 27.8839 33.5358 27.9483C33.5358 28.0125 33.5517 28.0286 33.6161 28.0286C33.6798 28.0286 33.6964 28.0448 33.6964 28.1068C33.6964 28.1682 33.7154 28.1872 33.7848 28.1952C33.8542 28.2032 33.8754 28.2243 33.8834 28.2937C33.8914 28.3632 33.9104 28.3822 33.9718 28.3822C34.0338 28.3822 34.05 28.3988 34.05 28.4625C34.05 28.5267 34.0661 28.5428 34.1303 28.5428C34.1947 28.5428 34.2108 28.5589 34.2108 28.6233C34.2108 28.6875 34.2267 28.7036 34.2911 28.7036C34.3548 28.7036 34.3714 28.7198 34.3714 28.7818C34.3714 28.8432 34.3904 28.8622 34.4598 28.8702C34.5293 28.8782 34.5504 28.8993 34.5584 28.9688C34.5664 29.0382 34.5854 29.0572 34.6468 29.0572C34.7088 29.0572 34.725 29.0738 34.725 29.1375C34.725 29.2017 34.7411 29.2178 34.8053 29.2178C34.8697 29.2178 34.8858 29.2339 34.8858 29.2983C34.8858 29.3625 34.9017 29.3786 34.9661 29.3786C35.0297 29.3786 35.0464 29.3948 35.0464 29.4563C35.0464 29.5167 35.0681 29.5389 35.1428 29.5553C35.2176 29.5718 35.2392 29.594 35.2392 29.6543C35.2392 29.7159 35.2561 29.7322 35.3197 29.7322C35.3839 29.7322 35.4 29.7483 35.4 29.8125C35.4 29.8767 35.4161 29.8928 35.4803 29.8928C35.5447 29.8928 35.5608 29.9089 35.5608 29.9733C35.5608 30.0375 35.5767 30.0536 35.6411 30.0536C35.7089 30.0536 35.7214 30.0686 35.7214 30.15C35.7214 30.2357 35.7321 30.2464 35.8178 30.2464C35.8993 30.2464 35.9142 30.2589 35.9142 30.3267C35.9142 30.3911 35.9303 30.4072 35.9947 30.4072C36.0589 30.4072 36.075 30.4233 36.075 30.4875C36.075 30.5517 36.0911 30.5678 36.1553 30.5678C36.2197 30.5678 36.2358 30.5839 36.2358 30.6483C36.2358 30.7125 36.2517 30.7286 36.3161 30.7286C36.3839 30.7286 36.3964 30.7435 36.3964 30.825C36.3964 30.9107 36.4071 30.9214 36.4928 30.9214C36.5743 30.9214 36.5892 30.9339 36.5892 31.0017C36.5892 31.0661 36.6053 31.0822 36.6697 31.0822C36.7339 31.0822 36.75 31.0983 36.75 31.1625C36.75 31.2267 36.7661 31.2428 36.8303 31.2428C36.8941 31.2428 36.9108 31.259 36.9108 31.3211C36.9108 31.3825 36.9297 31.4015 36.9991 31.4094C37.0685 31.4174 37.0896 31.4386 37.0976 31.508C37.1056 31.5775 37.1246 31.5964 37.1861 31.5964C37.248 31.5964 37.2642 31.6131 37.2642 31.6767C37.2642 31.7411 37.2803 31.7572 37.3447 31.7572C37.4089 31.7572 37.425 31.7733 37.425 31.8375C37.425 31.9017 37.4411 31.9178 37.5053 31.9178C37.5691 31.9178 37.5858 31.934 37.5858 31.9961C37.5858 32.0575 37.6047 32.0765 37.6741 32.0844C37.7435 32.0924 37.7646 32.1136 37.7726 32.183C37.7806 32.2525 37.7996 32.2714 37.861 32.2714C37.923 32.2714 37.9392 32.2881 37.9392 32.3517C37.9392 32.4161 37.9553 32.4322 38.0197 32.4322C38.0839 32.4322 38.1 32.4483 38.1 32.5125C38.1 32.5767 38.1161 32.5928 38.1803 32.5928C38.2439 32.5928 38.2608 32.6091 38.2608 32.6707C38.2608 32.731 38.2824 32.7533 38.3572 32.7697C38.4319 32.7861 38.4536 32.8083 38.4536 32.8687C38.4536 32.9302 38.4703 32.9464 38.5339 32.9464C38.5983 32.9464 38.6142 32.9625 38.6142 33.0267C38.6142 33.0911 38.6303 33.1072 38.6947 33.1072C38.7589 33.1072 38.775 33.1233 38.775 33.1875C38.775 33.2517 38.7911 33.2678 38.8553 33.2678C38.9232 33.2678 38.9358 33.2829 38.9358 33.3642C38.9358 33.45 38.9464 33.4608 39.0322 33.4608C39.1136 33.4608 39.1286 33.4733 39.1286 33.5411C39.1286 33.6053 39.1447 33.6214 39.2089 33.6214C39.2733 33.6214 39.2892 33.6375 39.2892 33.7017C39.2892 33.7661 39.3053 33.7822 39.3697 33.7822C39.4339 33.7822 39.45 33.7983 39.45 33.8625C39.45 33.9267 39.4661 33.9428 39.5303 33.9428C39.5982 33.9428 39.6108 33.9579 39.6108 34.0392C39.6108 34.125 39.6214 34.1358 39.7072 34.1358C39.7886 34.1358 39.8036 34.1483 39.8036 34.2161C39.8036 34.2803 39.8197 34.2964 39.8839 34.2964C39.9483 34.2964 39.9642 34.3125 39.9642 34.3767C39.9642 34.4411 39.9803 34.4572 40.0447 34.4572C40.1083 34.4572 40.125 34.4734 40.125 34.5354C40.125 34.5968 40.144 34.6158 40.2134 34.6238C40.2828 34.6318 40.304 34.6529 40.312 34.7223C40.32 34.7917 40.3389 34.8108 40.4004 34.8108C40.4624 34.8108 40.4786 34.8274 40.4786 34.8911C40.4786 34.9553 40.4947 34.9714 40.5589 34.9714C40.6233 34.9714 40.6392 34.9875 40.6392 35.0517C40.6392 35.1161 40.6553 35.1322 40.7197 35.1322C40.7834 35.1322 40.8 35.1484 40.8 35.2104C40.8 35.2718 40.819 35.2908 40.8884 35.2988C40.9578 35.3068 40.979 35.3279 40.987 35.3973C40.995 35.4668 41.0139 35.4858 41.0754 35.4858C41.1374 35.4858 41.1536 35.5024 41.1536 35.5661C41.1536 35.6303 41.1697 35.6464 41.2339 35.6464C41.2983 35.6464 41.3142 35.6625 41.3142 35.7267C41.3142 35.7911 41.3303 35.8072 41.3947 35.8072C41.4582 35.8072 41.475 35.8234 41.475 35.8849C41.475 35.9452 41.4967 35.9675 41.5714 35.9839C41.6462 36.0003 41.6678 36.0226 41.6678 36.0829C41.6678 36.1444 41.6846 36.1608 41.7483 36.1608C41.8125 36.1608 41.8286 36.1767 41.8286 36.2411C41.8286 36.3053 41.8447 36.3214 41.9089 36.3214C41.9733 36.3214 41.9892 36.3375 41.9892 36.4017C41.9892 36.4661 42.0053 36.4822 42.0697 36.4822C42.1375 36.4822 42.15 36.4971 42.15 36.5786C42.15 36.6643 42.1607 36.675 42.2464 36.675C42.3279 36.675 42.3428 36.6875 42.3428 36.7553C42.3428 36.8197 42.3589 36.8358 42.4233 36.8358C42.4875 36.8358 42.5036 36.8517 42.5036 36.9161C42.5036 36.9803 42.5197 36.9964 42.5839 36.9964C42.6483 36.9964 42.6642 37.0125 42.6642 37.0767C42.6642 37.1411 42.6803 37.1572 42.7447 37.1572C42.8125 37.1572 42.825 37.1721 42.825 37.2536C42.825 37.3393 42.8357 37.35 42.9214 37.35C43.0029 37.35 43.0178 37.3625 43.0178 37.4303C43.0178 37.4947 43.0339 37.5108 43.0983 37.5108C43.1625 37.5108 43.1786 37.5267 43.1786 37.5911C43.1786 37.6553 43.1947 37.6714 43.2589 37.6714C43.3226 37.6714 43.3392 37.6876 43.3392 37.7496C43.3392 37.8111 43.3582 37.83 43.4277 37.838C43.4971 37.846 43.5182 37.8672 43.5262 37.9366C43.5342 38.006 43.5532 38.025 43.6146 38.025C43.6766 38.025 43.6928 38.0416 43.6928 38.1053C43.6928 38.1697 43.7089 38.1858 43.7733 38.1858C43.8375 38.1858 43.8536 38.2017 43.8536 38.2661C43.8536 38.3303 43.8697 38.3464 43.9339 38.3464C43.9983 38.3464 44.0142 38.3625 44.0142 38.4267C44.0142 38.5028 44.0239 38.5072 44.1911 38.5072C44.3583 38.5072 44.3678 38.5028 44.3678 38.4267C44.3678 38.3625 44.3839 38.3464 44.4483 38.3464C44.5125 38.3464 44.5286 38.3303 44.5286 38.2661C44.5286 38.1902 44.5383 38.1858 44.7053 38.1858C44.8725 38.1858 44.8822 38.1814 44.8822 38.1053C44.8822 38.0411 44.8983 38.025 44.9625 38.025C45.0384 38.025 45.0428 38.0153 45.0428 37.8483C45.0428 37.6811 45.0472 37.6714 45.1233 37.6714C45.1982 37.6714 45.2036 37.6607 45.2036 37.5108C45.2036 37.3607 45.2089 37.35 45.2839 37.35C45.363 37.35 45.3642 37.3457 45.3642 37.0928V36.8358H45.4608H45.5572ZM6.0375 13.3072C5.97326 13.3072 5.95717 13.2911 5.95717 13.2267C5.95717 13.1625 5.94109 13.1464 5.87674 13.1464H5.79641V25.3286V37.5108H5.87674C5.95177 37.5108 5.95717 37.5215 5.95717 37.6714C5.95717 37.8214 5.96246 37.8322 6.0375 37.8322C6.10534 37.8322 6.11783 37.8471 6.11783 37.9286C6.11783 38.0143 6.12862 38.025 6.21424 38.025C6.29569 38.025 6.31076 38.0375 6.31076 38.1053C6.31076 38.1697 6.32674 38.1858 6.39109 38.1858C6.45454 38.1858 6.47141 38.202 6.47141 38.2631C6.47141 38.3336 6.48637 38.3415 6.64016 38.3515C6.92107 38.3698 6.98576 38.3535 6.98576 38.2639C6.98576 38.202 7.00241 38.1858 7.06609 38.1858C7.13032 38.1858 7.14641 38.1697 7.14641 38.1053C7.14641 38.0416 7.16261 38.025 7.2246 38.025C7.28614 38.025 7.30504 38.006 7.31302 37.9366C7.32034 37.8733 7.34374 37.8453 7.39549 37.8379C7.4406 37.8315 7.47514 37.7983 7.4874 37.7496C7.50124 37.694 7.52925 37.6714 7.58381 37.6714C7.64445 37.6714 7.66076 37.6544 7.66076 37.5911C7.66076 37.5267 7.67674 37.5108 7.74109 37.5108C7.80533 37.5108 7.82141 37.4947 7.82141 37.4303C7.82141 37.3666 7.83761 37.35 7.8996 37.35C7.96114 37.35 7.98004 37.331 7.98803 37.2616C7.99601 37.1922 8.01716 37.171 8.08657 37.163C8.15599 37.155 8.175 37.1361 8.175 37.0746C8.175 37.0126 8.19165 36.9964 8.25533 36.9964C8.31967 36.9964 8.33576 36.9803 8.33576 36.9161C8.33576 36.8517 8.35174 36.8358 8.41609 36.8358C8.48032 36.8358 8.49641 36.8197 8.49641 36.7553C8.49641 36.6917 8.51261 36.675 8.5746 36.675C8.63614 36.675 8.65504 36.656 8.66302 36.5866C8.67101 36.5172 8.69216 36.496 8.76157 36.488C8.83099 36.48 8.85 36.4611 8.85 36.3996C8.85 36.3376 8.86665 36.3214 8.93032 36.3214C8.99467 36.3214 9.01076 36.3053 9.01076 36.2411C9.01076 36.1767 9.02674 36.1608 9.09109 36.1608C9.15442 36.1608 9.17141 36.1444 9.17141 36.0838C9.17141 36.0292 9.19403 36.0012 9.2496 35.9874C9.29831 35.9751 9.3315 35.9406 9.33791 35.8955C9.34534 35.8437 9.37335 35.8203 9.43657 35.813C9.50599 35.805 9.525 35.7861 9.525 35.7246C9.525 35.6626 9.54165 35.6464 9.60532 35.6464C9.66967 35.6464 9.68576 35.6303 9.68576 35.5661C9.68576 35.5024 9.70196 35.4858 9.76395 35.4858C9.82537 35.4858 9.84439 35.4668 9.85238 35.3973C9.85946 35.3349 9.8832 35.306 9.93281 35.2989C9.97669 35.2927 10.0069 35.2623 10.0132 35.2186C10.0202 35.1688 10.0491 35.1452 10.1116 35.138C10.181 35.13 10.2 35.1111 10.2 35.0496C10.2 34.9876 10.2166 34.9714 10.2803 34.9714C10.3447 34.9714 10.3608 34.9553 10.3608 34.8911C10.3608 34.8274 10.377 34.8108 10.4389 34.8108C10.5004 34.8108 10.5194 34.7917 10.5274 34.7223C10.5346 34.659 10.5581 34.631 10.6097 34.6237C10.6548 34.6173 10.6894 34.584 10.7016 34.5352C10.7156 34.4798 10.7435 34.4572 10.7982 34.4572C10.8587 34.4572 10.875 34.4401 10.875 34.3767C10.875 34.3125 10.8911 34.2964 10.9553 34.2964C11.0197 34.2964 11.0358 34.2803 11.0358 34.2161C11.0358 34.1524 11.052 34.1358 11.1139 34.1358C11.1754 34.1358 11.1944 34.1167 11.2024 34.0473C11.2104 33.9779 11.2315 33.9568 11.3009 33.9488C11.3703 33.9408 11.3892 33.9218 11.3892 33.8604C11.3892 33.7984 11.4059 33.7822 11.4697 33.7822C11.5339 33.7822 11.55 33.7661 11.55 33.7017C11.55 33.6375 11.5661 33.6214 11.6303 33.6214C11.6947 33.6214 11.7108 33.6053 11.7108 33.5411C11.7108 33.4774 11.727 33.4608 11.7889 33.4608C11.8504 33.4608 11.8694 33.4417 11.8774 33.3723C11.8854 33.3029 11.9065 33.2818 11.9759 33.2738C12.0453 33.2658 12.0642 33.2468 12.0642 33.1854C12.0642 33.1234 12.0809 33.1072 12.1447 33.1072C12.2089 33.1072 12.225 33.0911 12.225 33.0267C12.225 32.9625 12.2411 32.9464 12.3053 32.9464C12.3687 32.9464 12.3858 32.9301 12.3858 32.8696C12.3858 32.8149 12.4084 32.787 12.4638 32.773C12.5125 32.7608 12.5458 32.7262 12.5523 32.6812C12.5596 32.6295 12.5876 32.606 12.6509 32.5988C12.7203 32.5908 12.7392 32.5718 12.7392 32.5104C12.7392 32.4484 12.7559 32.4322 12.8197 32.4322C12.8839 32.4322 12.9 32.4161 12.9 32.3517C12.9 32.2881 12.9162 32.2714 12.9782 32.2714C13.0396 32.2714 13.0586 32.2525 13.0666 32.183C13.0738 32.1205 13.0974 32.0918 13.1472 32.0847C13.1909 32.0784 13.2213 32.0481 13.2275 32.0042C13.2346 31.9546 13.2635 31.931 13.3259 31.9238C13.3953 31.9158 13.4142 31.8968 13.4142 31.8354C13.4142 31.7734 13.4309 31.7572 13.4947 31.7572C13.5589 31.7572 13.575 31.7411 13.575 31.6767C13.575 31.6131 13.5912 31.5964 13.6532 31.5964C13.7146 31.5964 13.7336 31.5775 13.7416 31.508C13.7489 31.4448 13.7723 31.4167 13.8241 31.4093C13.8692 31.403 13.9037 31.3697 13.916 31.321C13.9298 31.2654 13.9578 31.2428 14.0124 31.2428C14.073 31.2428 14.0892 31.2258 14.0892 31.1625C14.0892 31.0983 14.1053 31.0822 14.1697 31.0822C14.2339 31.0822 14.25 31.0661 14.25 31.0017C14.25 30.9381 14.2662 30.9214 14.3282 30.9214C14.3896 30.9214 14.4086 30.9025 14.4166 30.833C14.4246 30.7636 14.4458 30.7424 14.5152 30.7344C14.5846 30.7264 14.6036 30.7076 14.6036 30.6461C14.6036 30.584 14.6202 30.5678 14.6839 30.5678C14.7483 30.5678 14.7642 30.5517 14.7642 30.4875C14.7642 30.4233 14.7803 30.4072 14.8447 30.4072C14.9089 30.4072 14.925 30.3911 14.925 30.3267C14.925 30.2631 14.9412 30.2464 15.0032 30.2464C15.0646 30.2464 15.0836 30.2275 15.0916 30.158C15.0996 30.0886 15.1207 30.0674 15.1902 30.0594C15.2596 30.0515 15.2786 30.0325 15.2786 29.9711C15.2786 29.909 15.2952 29.8928 15.3589 29.8928C15.4233 29.8928 15.4392 29.8767 15.4392 29.8125C15.4392 29.7483 15.4553 29.7322 15.5197 29.7322C15.583 29.7322 15.6 29.7159 15.6 29.6552C15.6 29.6007 15.6226 29.5728 15.6781 29.5588C15.7269 29.5465 15.7601 29.512 15.7665 29.4669C15.7738 29.4151 15.8019 29.3918 15.8652 29.3844C15.9346 29.3764 15.9536 29.3575 15.9536 29.2961C15.9536 29.234 15.9702 29.2178 16.0339 29.2178C16.0983 29.2178 16.1142 29.2017 16.1142 29.1375C16.1142 29.0738 16.1306 29.0572 16.1925 29.0572C16.254 29.0572 16.2729 29.0382 16.2808 28.9688C16.288 28.9063 16.3117 28.8774 16.3614 28.8703C16.4053 28.8641 16.4355 28.8339 16.4417 28.79C16.4488 28.7403 16.4777 28.7166 16.5402 28.7094C16.6096 28.7015 16.6286 28.6826 16.6286 28.6211C16.6286 28.559 16.6452 28.5428 16.7089 28.5428C16.7733 28.5428 16.7892 28.5267 16.7892 28.4625C16.7892 28.3988 16.8055 28.3822 16.8675 28.3822C16.929 28.3822 16.9479 28.3632 16.9559 28.2937C16.9632 28.2305 16.9866 28.2024 17.0383 28.1951C17.0834 28.1887 17.118 28.1555 17.1302 28.1067C17.1442 28.0512 17.1721 28.0286 17.2267 28.0286C17.2873 28.0286 17.3036 28.0115 17.3036 27.9483C17.3036 27.8839 17.3197 27.8678 17.3839 27.8678C17.4483 27.8678 17.4642 27.8517 17.4642 27.7875C17.4642 27.7238 17.4805 27.7072 17.5425 27.7072C17.604 27.7072 17.6229 27.6882 17.6308 27.6187C17.6388 27.5493 17.66 27.5282 17.7295 27.5202C17.7989 27.5122 17.8178 27.4932 17.8178 27.4318C17.8178 27.3698 17.8345 27.3536 17.8983 27.3536C17.9625 27.3536 17.9786 27.3375 17.9786 27.2733C17.9786 27.2089 17.9947 27.1928 18.0589 27.1928C18.1233 27.1928 18.1392 27.1767 18.1392 27.1125C18.1392 27.0488 18.1556 27.0322 18.2175 27.0322C18.279 27.0322 18.2979 27.0132 18.3058 26.9438C18.3138 26.8743 18.335 26.8532 18.4045 26.8452C18.4739 26.8372 18.4928 26.8182 18.4928 26.7568C18.4928 26.6948 18.5095 26.6786 18.5733 26.6786C18.6375 26.6786 18.6536 26.6625 18.6536 26.5983C18.6536 26.5339 18.6697 26.5178 18.7339 26.5178C18.7972 26.5178 18.8142 26.5015 18.8142 26.441C18.8142 26.3857 18.837 26.3584 18.8947 26.3439C19.0103 26.3149 19.0103 26.1642 18.8947 26.1642C18.8303 26.1642 18.8142 26.1483 18.8142 26.0839C18.8142 26.0197 18.7983 26.0036 18.7339 26.0036C18.6697 26.0036 18.6536 25.9875 18.6536 25.9233C18.6536 25.8589 18.6375 25.8428 18.5733 25.8428C18.5053 25.8428 18.4928 25.8279 18.4928 25.7464C18.4928 25.6607 18.4821 25.65 18.3964 25.65C18.315 25.65 18.3 25.6375 18.3 25.5697C18.3 25.5053 18.2839 25.4892 18.2197 25.4892C18.1553 25.4892 18.1392 25.4733 18.1392 25.4089C18.1392 25.3447 18.1233 25.3286 18.0589 25.3286C17.9947 25.3286 17.9786 25.3125 17.9786 25.2483C17.9786 25.1839 17.9625 25.1678 17.8983 25.1678C17.8303 25.1678 17.8178 25.1529 17.8178 25.0714C17.8178 24.9857 17.8071 24.975 17.7214 24.975C17.64 24.975 17.625 24.9625 17.625 24.8947C17.625 24.8303 17.6089 24.8142 17.5447 24.8142C17.4803 24.8142 17.4642 24.7983 17.4642 24.7339C17.4642 24.6697 17.4483 24.6536 17.3839 24.6536C17.3197 24.6536 17.3036 24.6375 17.3036 24.5733C17.3036 24.5096 17.2873 24.4928 17.2257 24.4928C17.1654 24.4928 17.1432 24.4712 17.1267 24.3964C17.1103 24.3217 17.0882 24.3 17.0278 24.3C16.9662 24.3 16.95 24.2832 16.95 24.2197C16.95 24.1553 16.9339 24.1392 16.8697 24.1392C16.8053 24.1392 16.7892 24.1233 16.7892 24.0589C16.7892 23.9947 16.7733 23.9786 16.7089 23.9786C16.6452 23.9786 16.6286 23.9624 16.6286 23.9004C16.6286 23.8389 16.6096 23.82 16.5402 23.812C16.4708 23.804 16.4496 23.7828 16.4416 23.7134C16.4336 23.644 16.4146 23.625 16.3532 23.625C16.2912 23.625 16.275 23.6083 16.275 23.5447C16.275 23.4803 16.2589 23.4642 16.1947 23.4642C16.1303 23.4642 16.1142 23.4483 16.1142 23.3839C16.1142 23.3197 16.0983 23.3036 16.0339 23.3036C15.9661 23.3036 15.9536 23.2886 15.9536 23.2072C15.9536 23.1215 15.9429 23.1108 15.8572 23.1108C15.7757 23.1108 15.7608 23.0982 15.7608 23.0303C15.7608 22.9661 15.7447 22.95 15.6803 22.95C15.6161 22.95 15.6 22.9339 15.6 22.8697C15.6 22.8053 15.5839 22.7892 15.5197 22.7892C15.4553 22.7892 15.4392 22.7733 15.4392 22.7089C15.4392 22.6447 15.4233 22.6286 15.3589 22.6286C15.2911 22.6286 15.2786 22.6136 15.2786 22.5322C15.2786 22.4464 15.2679 22.4358 15.1822 22.4358C15.1007 22.4358 15.0858 22.4232 15.0858 22.3553C15.0858 22.2911 15.0697 22.275 15.0053 22.275C14.9411 22.275 14.925 22.2589 14.925 22.1947C14.925 22.1303 14.9089 22.1142 14.8447 22.1142C14.7803 22.1142 14.7642 22.0983 14.7642 22.0339C14.7642 21.9697 14.7483 21.9536 14.6839 21.9536C14.6161 21.9536 14.6036 21.9386 14.6036 21.8572C14.6036 21.7715 14.5929 21.7608 14.5072 21.7608C14.4257 21.7608 14.4108 21.7482 14.4108 21.6803C14.4108 21.6161 14.3947 21.6 14.3303 21.6C14.2661 21.6 14.25 21.5839 14.25 21.5197C14.25 21.4553 14.2339 21.4392 14.1697 21.4392C14.1053 21.4392 14.0892 21.4233 14.0892 21.3589C14.0892 21.2953 14.073 21.2786 14.0115 21.2786C13.9512 21.2786 13.9289 21.2569 13.9125 21.1822C13.8961 21.1074 13.8738 21.0858 13.8135 21.0858C13.752 21.0858 13.7358 21.0689 13.7358 21.0053C13.7358 20.9411 13.7197 20.925 13.6553 20.925C13.5911 20.925 13.575 20.9089 13.575 20.8447C13.575 20.7803 13.5589 20.7642 13.4947 20.7642C13.4309 20.7642 13.4142 20.748 13.4142 20.6861C13.4142 20.6246 13.3953 20.6056 13.3259 20.5976C13.2565 20.5896 13.2354 20.5685 13.2274 20.4991C13.2194 20.4297 13.2004 20.4108 13.1389 20.4108C13.077 20.4108 13.0608 20.3941 13.0608 20.3303C13.0608 20.2661 13.0447 20.25 12.9803 20.25C12.9161 20.25 12.9 20.2339 12.9 20.1697C12.9 20.1053 12.8839 20.0892 12.8197 20.0892C12.7518 20.0892 12.7392 20.0743 12.7392 19.9928C12.7392 19.9071 12.7285 19.8964 12.6428 19.8964C12.5614 19.8964 12.5464 19.8839 12.5464 19.8161C12.5464 19.7517 12.5303 19.7358 12.4661 19.7358C12.4017 19.7358 12.3858 19.7197 12.3858 19.6553C12.3858 19.5911 12.3697 19.575 12.3053 19.575C12.2411 19.575 12.225 19.5589 12.225 19.4947C12.225 19.4303 12.2089 19.4142 12.1447 19.4142C12.0768 19.4142 12.0642 19.3993 12.0642 19.3178C12.0642 19.2321 12.0535 19.2214 11.9678 19.2214C11.8864 19.2214 11.8714 19.2089 11.8714 19.1411C11.8714 19.0767 11.8553 19.0608 11.7911 19.0608C11.7267 19.0608 11.7108 19.0447 11.7108 18.9803C11.7108 18.9161 11.6947 18.9 11.6303 18.9C11.5661 18.9 11.55 18.8839 11.55 18.8197C11.55 18.7553 11.5339 18.7392 11.4697 18.7392C11.4018 18.7392 11.3892 18.7243 11.3892 18.6428C11.3892 18.5571 11.3785 18.5464 11.2928 18.5464C11.2114 18.5464 11.1964 18.5339 11.1964 18.4661C11.1964 18.4017 11.1803 18.3858 11.1161 18.3858C11.0517 18.3858 11.0358 18.3697 11.0358 18.3053C11.0358 18.2411 11.0197 18.225 10.9553 18.225C10.8911 18.225 10.875 18.2089 10.875 18.1447C10.875 18.0811 10.8588 18.0642 10.7971 18.0642C10.7368 18.0642 10.7147 18.0426 10.6983 17.9678C10.6818 17.8931 10.6596 17.8714 10.5993 17.8714C10.5377 17.8714 10.5214 17.8546 10.5214 17.7911C10.5214 17.7267 10.5053 17.7108 10.4411 17.7108C10.3767 17.7108 10.3608 17.6947 10.3608 17.6303C10.3608 17.5661 10.3447 17.55 10.2803 17.55C10.2166 17.55 10.2 17.5338 10.2 17.4718C10.2 17.4104 10.181 17.3914 10.1116 17.3834C10.0422 17.3754 10.021 17.3542 10.013 17.2848C10.005 17.2154 9.98614 17.1964 9.9246 17.1964C9.86261 17.1964 9.84641 17.1798 9.84641 17.1161C9.84641 17.0517 9.83033 17.0358 9.76609 17.0358C9.70174 17.0358 9.68576 17.0197 9.68576 16.9553C9.68576 16.8911 9.66967 16.875 9.60532 16.875C9.53749 16.875 9.525 16.86 9.525 16.7786C9.525 16.6929 9.51431 16.6822 9.42859 16.6822C9.34714 16.6822 9.33217 16.6697 9.33217 16.6017C9.33217 16.5375 9.31609 16.5214 9.25174 16.5214C9.1875 16.5214 9.17141 16.5053 9.17141 16.4411C9.17141 16.3767 9.15532 16.3608 9.09109 16.3608C9.02674 16.3608 9.01076 16.3447 9.01076 16.2803C9.01076 16.2161 8.99467 16.2 8.93032 16.2C8.86249 16.2 8.85 16.185 8.85 16.1036C8.85 16.0179 8.83931 16.0072 8.75359 16.0072C8.67214 16.0072 8.65718 15.9947 8.65718 15.9267C8.65718 15.8625 8.64109 15.8464 8.57674 15.8464C8.5125 15.8464 8.49641 15.8303 8.49641 15.7661C8.49641 15.7017 8.48032 15.6858 8.41609 15.6858C8.35174 15.6858 8.33576 15.6697 8.33576 15.6053C8.33576 15.5411 8.31967 15.525 8.25533 15.525C8.18749 15.525 8.175 15.51 8.175 15.4286C8.175 15.3429 8.16431 15.3322 8.07859 15.3322C7.99714 15.3322 7.98217 15.3197 7.98217 15.2517C7.98217 15.1875 7.96609 15.1714 7.90174 15.1714C7.8375 15.1714 7.82141 15.1553 7.82141 15.0911C7.82141 15.0267 7.80533 15.0108 7.74109 15.0108C7.67674 15.0108 7.66076 14.9947 7.66076 14.9303C7.66076 14.8668 7.64445 14.85 7.58291 14.85C7.52261 14.85 7.50034 14.8283 7.48391 14.7536C7.46749 14.6788 7.44521 14.6572 7.38491 14.6572C7.32338 14.6572 7.30717 14.6404 7.30717 14.5767C7.30717 14.5125 7.29109 14.4964 7.22674 14.4964C7.1625 14.4964 7.14641 14.4803 7.14641 14.4161C7.14641 14.3517 7.13032 14.3358 7.06609 14.3358C7.00241 14.3358 6.98576 14.3195 6.98576 14.2575C6.98576 14.196 6.96675 14.1771 6.89734 14.1692C6.82793 14.1612 6.80677 14.14 6.79879 14.0705C6.7908 14.0011 6.77179 13.9822 6.71036 13.9822C6.64837 13.9822 6.63217 13.9655 6.63217 13.9017C6.63217 13.8375 6.61609 13.8214 6.55174 13.8214C6.4875 13.8214 6.47141 13.8053 6.47141 13.7411C6.47141 13.6767 6.45532 13.6608 6.39109 13.6608C6.32325 13.6608 6.31076 13.6457 6.31076 13.5642C6.31076 13.4786 6.29996 13.4678 6.21424 13.4678C6.1329 13.4678 6.11783 13.4553 6.11783 13.3875C6.11783 13.3233 6.10174 13.3072 6.0375 13.3072ZM21.1125 28.3822C21.0447 28.3822 21.0322 28.3671 21.0322 28.2858C21.0322 28.1903 21.0304 28.1892 20.8553 28.1892C20.6804 28.1892 20.6786 28.1903 20.6786 28.2858C20.6786 28.3671 20.6661 28.3822 20.5983 28.3822C20.5339 28.3822 20.5178 28.3983 20.5178 28.4625C20.5178 28.5303 20.5029 28.5428 20.4214 28.5428C20.34 28.5428 20.325 28.5553 20.325 28.6233C20.325 28.6875 20.3089 28.7036 20.2447 28.7036C20.1803 28.7036 20.1642 28.7197 20.1642 28.7839C20.1642 28.8483 20.1483 28.8642 20.0839 28.8642C20.0161 28.8642 20.0036 28.8793 20.0036 28.9608C20.0036 29.0421 19.9911 29.0572 19.9233 29.0572C19.8589 29.0572 19.8428 29.0733 19.8428 29.1375C19.8428 29.2053 19.8279 29.2178 19.7464 29.2178C19.665 29.2178 19.65 29.2303 19.65 29.2983C19.65 29.3625 19.6339 29.3786 19.5697 29.3786C19.5053 29.3786 19.4892 29.3947 19.4892 29.4589C19.4892 29.5233 19.4733 29.5392 19.4089 29.5392C19.3411 29.5392 19.3286 29.5543 19.3286 29.6358C19.3286 29.7171 19.3161 29.7322 19.2483 29.7322C19.1839 29.7322 19.1678 29.7483 19.1678 29.8125C19.1678 29.8803 19.1529 29.8928 19.0714 29.8928C18.99 29.8928 18.975 29.9053 18.975 29.9733C18.975 30.0375 18.9589 30.0536 18.8947 30.0536C18.8268 30.0536 18.8142 30.0686 18.8142 30.15C18.8142 30.2314 18.8017 30.2464 18.7339 30.2464C18.6697 30.2464 18.6536 30.2625 18.6536 30.3267C18.6536 30.3911 18.6375 30.4072 18.5733 30.4072C18.5089 30.4072 18.4928 30.4233 18.4928 30.4875C18.4928 30.5553 18.4779 30.5678 18.3964 30.5678C18.315 30.5678 18.3 30.5803 18.3 30.6483C18.3 30.7125 18.2839 30.7286 18.2197 30.7286C18.1518 30.7286 18.1392 30.7435 18.1392 30.825C18.1392 30.9065 18.1267 30.9214 18.0589 30.9214C17.9947 30.9214 17.9786 30.9375 17.9786 31.0017C17.9786 31.0661 17.9625 31.0822 17.8983 31.0822C17.8339 31.0822 17.8178 31.0983 17.8178 31.1625C17.8178 31.2303 17.8029 31.2428 17.7214 31.2428C17.64 31.2428 17.625 31.2553 17.625 31.3233C17.625 31.3875 17.6089 31.4036 17.5447 31.4036C17.4768 31.4036 17.4642 31.4185 17.4642 31.5C17.4642 31.5814 17.4517 31.5964 17.3839 31.5964C17.3197 31.5964 17.3036 31.6125 17.3036 31.6767C17.3036 31.7447 17.2886 31.7572 17.2072 31.7572C17.1257 31.7572 17.1108 31.7697 17.1108 31.8375C17.1108 31.9017 17.0947 31.9178 17.0303 31.9178C16.9661 31.9178 16.95 31.9339 16.95 31.9983C16.95 32.0625 16.9339 32.0786 16.8697 32.0786C16.8018 32.0786 16.7892 32.0935 16.7892 32.175C16.7892 32.2565 16.7768 32.2714 16.7089 32.2714C16.6447 32.2714 16.6286 32.2875 16.6286 32.3517C16.6286 32.4197 16.6136 32.4322 16.5322 32.4322C16.4507 32.4322 16.4358 32.4447 16.4358 32.5125C16.4358 32.5767 16.4197 32.5928 16.3553 32.5928C16.2911 32.5928 16.275 32.6089 16.275 32.6733C16.275 32.7375 16.2589 32.7536 16.1947 32.7536C16.1268 32.7536 16.1142 32.7686 16.1142 32.85C16.1142 32.9314 16.1017 32.9464 16.0339 32.9464C15.9697 32.9464 15.9536 32.9625 15.9536 33.0267C15.9536 33.0947 15.9386 33.1072 15.8572 33.1072C15.7757 33.1072 15.7608 33.1197 15.7608 33.1875C15.7608 33.2517 15.7447 33.2678 15.6803 33.2678C15.6125 33.2678 15.6 33.2829 15.6 33.3642C15.6 33.4457 15.5875 33.4608 15.5197 33.4608C15.4553 33.4608 15.4392 33.4767 15.4392 33.5411C15.4392 33.6053 15.4233 33.6214 15.3589 33.6214C15.2947 33.6214 15.2786 33.6375 15.2786 33.7017C15.2786 33.7697 15.2636 33.7822 15.1822 33.7822C15.1007 33.7822 15.0858 33.7947 15.0858 33.8625C15.0858 33.9267 15.0697 33.9428 15.0053 33.9428C14.9375 33.9428 14.925 33.9579 14.925 34.0392C14.925 34.1207 14.9125 34.1358 14.8447 34.1358C14.7803 34.1358 14.7642 34.1517 14.7642 34.2161C14.7642 34.2803 14.7483 34.2964 14.6839 34.2964C14.6197 34.2964 14.6036 34.3125 14.6036 34.3767C14.6036 34.4447 14.5886 34.4572 14.5072 34.4572C14.4257 34.4572 14.4108 34.4697 14.4108 34.5375C14.4108 34.6017 14.3947 34.6178 14.3303 34.6178C14.2625 34.6178 14.25 34.6329 14.25 34.7142C14.25 34.7957 14.2375 34.8108 14.1697 34.8108C14.1053 34.8108 14.0892 34.8267 14.0892 34.8911C14.0892 34.9589 14.0743 34.9714 13.9928 34.9714C13.9114 34.9714 13.8964 34.9839 13.8964 35.0517C13.8964 35.1161 13.8803 35.1322 13.8161 35.1322C13.7517 35.1322 13.7358 35.1483 13.7358 35.2125C13.7358 35.2767 13.7197 35.2928 13.6553 35.2928C13.5875 35.2928 13.575 35.3079 13.575 35.3892C13.575 35.4707 13.5625 35.4858 13.4947 35.4858C13.4303 35.4858 13.4142 35.5017 13.4142 35.5661C13.4142 35.6339 13.3993 35.6464 13.3178 35.6464C13.2364 35.6464 13.2214 35.6589 13.2214 35.7267C13.2214 35.7911 13.2053 35.8072 13.1411 35.8072C13.0767 35.8072 13.0608 35.8233 13.0608 35.8875C13.0608 35.9517 13.0447 35.9678 12.9803 35.9678C12.9125 35.9678 12.9 35.9829 12.9 36.0642C12.9 36.1457 12.8875 36.1608 12.8197 36.1608C12.7553 36.1608 12.7392 36.1767 12.7392 36.2411C12.7392 36.3089 12.7243 36.3214 12.6428 36.3214C12.5614 36.3214 12.5464 36.3339 12.5464 36.4017C12.5464 36.4661 12.5303 36.4822 12.4661 36.4822C12.3982 36.4822 12.3858 36.4971 12.3858 36.5786C12.3858 36.66 12.3732 36.675 12.3053 36.675C12.2411 36.675 12.225 36.6911 12.225 36.7553C12.225 36.8197 12.2089 36.8358 12.1447 36.8358C12.0803 36.8358 12.0642 36.8517 12.0642 36.9161C12.0642 36.9839 12.0493 36.9964 11.9678 36.9964C11.8864 36.9964 11.8714 37.0089 11.8714 37.0767C11.8714 37.1411 11.8553 37.1572 11.7911 37.1572C11.7232 37.1572 11.7108 37.1721 11.7108 37.2536C11.7108 37.335 11.6982 37.35 11.6303 37.35C11.5661 37.35 11.55 37.3661 11.55 37.4303C11.55 37.4947 11.5339 37.5108 11.4697 37.5108C11.4053 37.5108 11.3892 37.5267 11.3892 37.5911C11.3892 37.6589 11.3743 37.6714 11.2928 37.6714C11.2114 37.6714 11.1964 37.6839 11.1964 37.7517C11.1964 37.8161 11.1803 37.8322 11.1161 37.8322C11.0482 37.8322 11.0358 37.8471 11.0358 37.9286C11.0358 38.01 11.0232 38.025 10.9553 38.025C10.8911 38.025 10.875 38.0411 10.875 38.1053C10.875 38.1732 10.86 38.1858 10.7786 38.1858C10.6971 38.1858 10.6822 38.1982 10.6822 38.2661C10.6822 38.3303 10.6661 38.3464 10.6017 38.3464C10.5375 38.3464 10.5214 38.3625 10.5214 38.4267C10.5214 38.4911 10.5053 38.5072 10.4411 38.5072C10.3733 38.5072 10.3608 38.5221 10.3608 38.6036V38.7H25.4197H40.4786V38.6036C40.4786 38.5221 40.4661 38.5072 40.3983 38.5072C40.3339 38.5072 40.3178 38.4911 40.3178 38.4267C40.3178 38.3589 40.3029 38.3464 40.2214 38.3464C40.14 38.3464 40.125 38.3339 40.125 38.2661C40.125 38.2017 40.1089 38.1858 40.0447 38.1858C39.9803 38.1858 39.9642 38.1697 39.9642 38.1053C39.9642 38.0411 39.9483 38.025 39.8839 38.025C39.8161 38.025 39.8036 38.01 39.8036 37.9286C39.8036 37.8474 39.791 37.8322 39.7238 37.8322C39.6655 37.8322 39.6387 37.8105 39.6239 37.7517C39.6094 37.6941 39.5821 37.6714 39.5268 37.6714C39.4663 37.6714 39.45 37.6544 39.45 37.5911C39.45 37.5267 39.4339 37.5108 39.3697 37.5108C39.3053 37.5108 39.2892 37.4947 39.2892 37.4303C39.2892 37.3661 39.2733 37.35 39.2089 37.35C39.1411 37.35 39.1286 37.335 39.1286 37.2536C39.1286 37.1679 39.1179 37.1572 39.0322 37.1572C38.9507 37.1572 38.9358 37.1447 38.9358 37.0767C38.9358 37.0125 38.9197 36.9964 38.8553 36.9964C38.7911 36.9964 38.775 36.9803 38.775 36.9161C38.775 36.8517 38.7589 36.8358 38.6947 36.8358C38.6303 36.8358 38.6142 36.8197 38.6142 36.7553C38.6142 36.6911 38.5983 36.675 38.5339 36.675C38.4661 36.675 38.4536 36.66 38.4536 36.5786C38.4536 36.4929 38.4429 36.4822 38.3572 36.4822C38.2757 36.4822 38.2608 36.4697 38.2608 36.4017C38.2608 36.3375 38.2447 36.3214 38.1803 36.3214C38.1161 36.3214 38.1 36.3053 38.1 36.2411C38.1 36.1767 38.0839 36.1608 38.0197 36.1608C37.9518 36.1608 37.9392 36.1457 37.9392 36.0642C37.9392 35.9829 37.9268 35.9678 37.8589 35.9678C37.7947 35.9678 37.7786 35.9517 37.7786 35.8875C37.7786 35.8197 37.7636 35.8072 37.6822 35.8072C37.6007 35.8072 37.5858 35.7947 37.5858 35.7267C37.5858 35.6625 37.5697 35.6464 37.5053 35.6464C37.4411 35.6464 37.425 35.6303 37.425 35.5661C37.425 35.5017 37.4089 35.4858 37.3447 35.4858C37.2768 35.4858 37.2642 35.4707 37.2642 35.3892C37.2642 35.3079 37.2517 35.2928 37.1839 35.2928C37.1197 35.2928 37.1036 35.2767 37.1036 35.2125C37.1036 35.1447 37.0886 35.1322 37.0072 35.1322C36.9257 35.1322 36.9108 35.1197 36.9108 35.0517C36.9108 34.9875 36.8947 34.9714 36.8303 34.9714C36.7661 34.9714 36.75 34.9553 36.75 34.8911C36.75 34.8267 36.7339 34.8108 36.6697 34.8108C36.6018 34.8108 36.5892 34.7957 36.5892 34.7142C36.5892 34.633 36.5768 34.6178 36.5096 34.6178C36.4513 34.6178 36.4243 34.5962 36.4096 34.5375C36.3952 34.4798 36.3677 34.4572 36.3126 34.4572C36.252 34.4572 36.2358 34.4401 36.2358 34.3767C36.2358 34.3125 36.2197 34.2964 36.1553 34.2964C36.0911 34.2964 36.075 34.2803 36.075 34.2161C36.075 34.1517 36.0589 34.1358 35.9947 34.1358C35.9268 34.1358 35.9142 34.1207 35.9142 34.0392C35.9142 33.9536 35.9035 33.9428 35.8178 33.9428C35.7364 33.9428 35.7214 33.9303 35.7214 33.8625C35.7214 33.7983 35.7053 33.7822 35.6411 33.7822C35.5767 33.7822 35.5608 33.7661 35.5608 33.7017C35.5608 33.6375 35.5447 33.6214 35.4803 33.6214C35.4161 33.6214 35.4 33.6053 35.4 33.5411C35.4 33.4767 35.3839 33.4608 35.3197 33.4608C35.2518 33.4608 35.2392 33.4457 35.2392 33.3642C35.2392 33.2786 35.2285 33.2678 35.1428 33.2678C35.0614 33.2678 35.0464 33.2553 35.0464 33.1875C35.0464 33.1233 35.0303 33.1072 34.9661 33.1072C34.9017 33.1072 34.8858 33.0911 34.8858 33.0267C34.8858 32.9625 34.8697 32.9464 34.8053 32.9464C34.7375 32.9464 34.725 32.9314 34.725 32.85C34.725 32.7686 34.7125 32.7536 34.6447 32.7536C34.5803 32.7536 34.5642 32.7375 34.5642 32.6733C34.5642 32.6053 34.5493 32.5928 34.4678 32.5928C34.3864 32.5928 34.3714 32.5803 34.3714 32.5125C34.3714 32.4483 34.3553 32.4322 34.2911 32.4322C34.2267 32.4322 34.2108 32.4161 34.2108 32.3517C34.2108 32.2875 34.1947 32.2714 34.1303 32.2714C34.0625 32.2714 34.05 32.2565 34.05 32.175C34.05 32.0935 34.0375 32.0786 33.9697 32.0786C33.9053 32.0786 33.8892 32.0625 33.8892 31.9983C33.8892 31.9303 33.8743 31.9178 33.7928 31.9178C33.7114 31.9178 33.6964 31.9053 33.6964 31.8375C33.6964 31.7733 33.6803 31.7572 33.6161 31.7572C33.5517 31.7572 33.5358 31.7411 33.5358 31.6767C33.5358 31.6125 33.5197 31.5964 33.4553 31.5964C33.3875 31.5964 33.375 31.5814 33.375 31.5C33.375 31.4188 33.3624 31.4036 33.2952 31.4036C33.237 31.4036 33.2101 31.3819 33.1953 31.3233C33.1808 31.2655 33.1535 31.2428 33.0983 31.2428C33.0377 31.2428 33.0214 31.2258 33.0214 31.1625C33.0214 31.0983 33.0053 31.0822 32.9411 31.0822C32.8767 31.0822 32.8608 31.0661 32.8608 31.0017C32.8608 30.9375 32.8447 30.9214 32.7803 30.9214C32.7125 30.9214 32.7 30.9065 32.7 30.825C32.7 30.7393 32.6893 30.7286 32.6036 30.7286C32.5221 30.7286 32.5072 30.7161 32.5072 30.6483C32.5072 30.5839 32.4911 30.5678 32.4267 30.5678C32.3625 30.5678 32.3464 30.5517 32.3464 30.4875C32.3464 30.4233 32.3303 30.4072 32.2661 30.4072C32.2017 30.4072 32.1858 30.3911 32.1858 30.3267C32.1858 30.2625 32.1697 30.2464 32.1053 30.2464C32.0375 30.2464 32.025 30.2314 32.025 30.15C32.025 30.0643 32.0143 30.0536 31.9286 30.0536C31.8471 30.0536 31.8322 30.0411 31.8322 29.9733C31.8322 29.9089 31.8161 29.8928 31.7517 29.8928C31.6875 29.8928 31.6714 29.8767 31.6714 29.8125C31.6714 29.7483 31.6553 29.7322 31.5911 29.7322C31.5233 29.7322 31.5108 29.7171 31.5108 29.6358C31.5108 29.5543 31.4982 29.5392 31.4303 29.5392C31.3661 29.5392 31.35 29.5233 31.35 29.4589C31.35 29.3911 31.335 29.3786 31.2536 29.3786C31.1721 29.3786 31.1572 29.3661 31.1572 29.2983C31.1572 29.2339 31.1411 29.2178 31.0767 29.2178C31.0125 29.2178 30.9964 29.2017 30.9964 29.1375C30.9964 29.0733 30.9803 29.0572 30.9161 29.0572C30.8482 29.0572 30.8358 29.0421 30.8358 28.9608C30.8358 28.8793 30.8232 28.8642 30.7553 28.8642C30.6911 28.8642 30.675 28.8483 30.675 28.7839C30.675 28.7161 30.66 28.7036 30.5786 28.7036C30.4971 28.7036 30.4822 28.6911 30.4822 28.6233C30.4822 28.5589 30.4661 28.5428 30.4017 28.5428C30.3385 28.5428 30.3214 28.5265 30.3214 28.4661C30.3214 28.3841 30.237 28.3554 30.0562 28.3762C29.9868 28.3842 29.9678 28.4032 29.9678 28.4646C29.9678 28.5266 29.9512 28.5428 29.8875 28.5428C29.8233 28.5428 29.8072 28.5589 29.8072 28.6233C29.8072 28.6875 29.7911 28.7036 29.7267 28.7036C29.6625 28.7036 29.6464 28.7197 29.6464 28.7839C29.6464 28.8476 29.6302 28.8642 29.5682 28.8642C29.5068 28.8642 29.4878 28.8832 29.4798 28.9527C29.4718 29.0221 29.4507 29.0432 29.3812 29.0512C29.3118 29.0592 29.2928 29.0782 29.2928 29.1396C29.2928 29.2016 29.2762 29.2178 29.2125 29.2178C29.1483 29.2178 29.1322 29.2339 29.1322 29.2983C29.1322 29.3625 29.1161 29.3786 29.0517 29.3786C28.9875 29.3786 28.9714 29.3947 28.9714 29.4589C28.9714 29.5226 28.9552 29.5392 28.8932 29.5392C28.8318 29.5392 28.8128 29.5582 28.8048 29.6277C28.7968 29.6971 28.7757 29.7182 28.7062 29.7262C28.6368 29.7342 28.6178 29.7532 28.6178 29.8146C28.6178 29.8766 28.6012 29.8928 28.5375 29.8928C28.4733 29.8928 28.4572 29.9089 28.4572 29.9733C28.4572 30.0375 28.4411 30.0536 28.3767 30.0536C28.3089 30.0536 28.2964 30.0686 28.2964 30.15C28.2964 30.2307 28.2837 30.2464 28.2183 30.2464C28.1617 30.2464 28.1373 30.2664 28.1299 30.3188C28.1226 30.3705 28.0946 30.394 28.0312 30.4012C27.9618 30.4092 27.9428 30.4282 27.9428 30.4896C27.9428 30.5516 27.9262 30.5678 27.8625 30.5678C27.7983 30.5678 27.7822 30.5839 27.7822 30.6483C27.7822 30.7119 27.766 30.7286 27.7039 30.7286C27.6424 30.7286 27.6235 30.7475 27.6156 30.817C27.6082 30.8802 27.5848 30.9082 27.533 30.9157C27.4807 30.9231 27.4608 30.9475 27.4608 31.004C27.4608 31.0693 27.445 31.0822 27.3642 31.0822C27.2829 31.0822 27.2678 31.0947 27.2678 31.1625C27.2678 31.2267 27.2517 31.2428 27.1875 31.2428C27.1233 31.2428 27.1072 31.2589 27.1072 31.3233C27.1072 31.3869 27.091 31.4036 27.0289 31.4036C26.9674 31.4036 26.9485 31.4225 26.9406 31.492C26.9326 31.5614 26.9114 31.5826 26.842 31.5906C26.7725 31.5985 26.7536 31.6174 26.7536 31.6789C26.7536 31.741 26.7369 31.7572 26.6733 31.7572C26.6089 31.7572 26.5928 31.7733 26.5928 31.8375C26.5928 31.9017 26.5767 31.9178 26.5125 31.9178C26.4483 31.9178 26.4322 31.9339 26.4322 31.9983C26.4322 32.0619 26.416 32.0786 26.3539 32.0786C26.2924 32.0786 26.2735 32.0975 26.2656 32.167C26.2576 32.2364 26.2364 32.2576 26.167 32.2656C26.0975 32.2735 26.0786 32.2924 26.0786 32.3539V32.4322H25.5803H25.0822V32.3517C25.0822 32.2875 25.0661 32.2714 25.0017 32.2714C24.9339 32.2714 24.9214 32.2565 24.9214 32.175C24.9214 32.0893 24.9107 32.0786 24.825 32.0786C24.7435 32.0786 24.7286 32.0661 24.7286 31.9983C24.7286 31.9339 24.7125 31.9178 24.6483 31.9178C24.5839 31.9178 24.5678 31.9017 24.5678 31.8375C24.5678 31.7733 24.5517 31.7572 24.4875 31.7572C24.4233 31.7572 24.4072 31.7411 24.4072 31.6767C24.4072 31.6125 24.3911 31.5964 24.3267 31.5964C24.2589 31.5964 24.2464 31.5814 24.2464 31.5C24.2464 31.4143 24.2357 31.4036 24.15 31.4036C24.0686 31.4036 24.0536 31.3911 24.0536 31.3233C24.0536 31.2589 24.0375 31.2428 23.9733 31.2428C23.9089 31.2428 23.8928 31.2267 23.8928 31.1625C23.8928 31.0983 23.8767 31.0822 23.8125 31.0822C23.7483 31.0822 23.7322 31.0661 23.7322 31.0017C23.7322 30.9382 23.7159 30.9214 23.6543 30.9214C23.594 30.9214 23.5718 30.8997 23.5553 30.825C23.5389 30.7503 23.5167 30.7286 23.4563 30.7286C23.3948 30.7286 23.3786 30.7118 23.3786 30.6483C23.3786 30.5839 23.3625 30.5678 23.2983 30.5678C23.2339 30.5678 23.2178 30.5517 23.2178 30.4875C23.2178 30.4233 23.2017 30.4072 23.1375 30.4072C23.0738 30.4072 23.0572 30.391 23.0572 30.3289C23.0572 30.2674 23.0382 30.2485 22.9688 30.2406C22.8993 30.2326 22.8782 30.2114 22.8702 30.142C22.8622 30.0725 22.8432 30.0536 22.7818 30.0536C22.7198 30.0536 22.7036 30.0369 22.7036 29.9733C22.7036 29.9089 22.6875 29.8928 22.6233 29.8928C22.5589 29.8928 22.5428 29.8767 22.5428 29.8125C22.5428 29.7483 22.5267 29.7322 22.4625 29.7322C22.3947 29.7322 22.3822 29.7171 22.3822 29.6358C22.3822 29.55 22.3714 29.5392 22.2858 29.5392C22.2043 29.5392 22.1892 29.5267 22.1892 29.4589C22.1892 29.3947 22.1733 29.3786 22.1089 29.3786C22.0447 29.3786 22.0286 29.3625 22.0286 29.2983C22.0286 29.2339 22.0125 29.2178 21.9483 29.2178C21.8839 29.2178 21.8678 29.2017 21.8678 29.1375C21.8678 29.0733 21.8517 29.0572 21.7875 29.0572C21.7197 29.0572 21.7072 29.0421 21.7072 28.9608C21.7072 28.875 21.6964 28.8642 21.6108 28.8642C21.5293 28.8642 21.5142 28.8517 21.5142 28.7839C21.5142 28.7197 21.4983 28.7036 21.4339 28.7036C21.3697 28.7036 21.3536 28.6875 21.3536 28.6233C21.3536 28.5589 21.3375 28.5428 21.2733 28.5428C21.2089 28.5428 21.1928 28.5267 21.1928 28.4625C21.1928 28.3983 21.1767 28.3822 21.1125 28.3822Z" fill="#E2E2E2"/>
</svg>
