<svg width="51" height="51" viewBox="0 0 51 51" fill="none" xmlns="http://www.w3.org/2000/svg">
<path fill-rule="evenodd" clip-rule="evenodd" d="M15 0C6.71573 0 0 6.71573 0 15V36C0 44.2843 6.71573 51 15 51H36C44.2843 51 51 44.2843 51 36V15C51 6.71573 44.2843 0 36 0H15ZM25.1194 6.85074C35.2089 6.85074 43.388 15.0299 43.388 25.1194C43.388 34.2378 36.7074 41.7956 27.9738 43.1661V30.4002H32.2306L33.0406 25.1194H27.9739V21.6925C27.9739 20.2478 28.6816 18.8395 30.951 18.8395H33.2546V14.3437C33.2546 14.3437 31.164 13.9869 29.1652 13.9869C24.9923 13.9869 22.2649 16.516 22.2649 21.0946V25.1194H17.6264V30.4002H22.2649V43.1661C13.5313 41.7956 6.85071 34.2378 6.85071 25.1194C6.85071 15.0299 15.0299 6.85074 25.1194 6.85074Z" fill="#E2E2E2"/>
</svg>
