<svg width="51" height="51" viewBox="0 0 51 51" fill="none" xmlns="http://www.w3.org/2000/svg">
<path fill-rule="evenodd" clip-rule="evenodd" d="M15 0C6.7157 0 0 6.71573 0 15V36C0 44.2843 6.7157 51 15 51H36C44.2843 51 51 44.2843 51 36V15C51 6.71573 44.2843 0 36 0H15ZM15.0323 44.3858C-3.00635 34.2235 2.1604 6.96952 22.6534 4.18629C29.1818 3.29957 36.0088 5.61703 40.7058 10.3142C51.1396 20.748 48.1843 38.4292 34.9257 44.8964C32.495 46.0821 31.7286 46.2534 31.1357 45.7439L30.8947 45.5366L30.8411 41.6544C30.7775 37.0518 30.7028 36.6396 29.7096 35.4159C29.5447 35.2127 29.4423 35.1087 29.463 35.044C29.4894 34.9615 29.7158 34.9432 30.2676 34.8652C35.5864 34.114 38.4036 31.4312 39.0568 26.4954C39.4426 23.581 38.9359 21.2254 37.5177 19.3403C37.2499 18.9843 37.0308 18.6652 37.0308 18.6311C37.0308 18.597 37.1111 18.234 37.2094 17.8245C37.5671 16.3318 37.2698 13.4625 36.7091 12.9971C36.234 12.6029 33.8025 13.4223 31.7596 14.6649L30.9227 15.174L29.8337 14.941C26.8641 14.306 23.9868 14.3204 20.9924 14.9853L20.1377 15.1752L19.0703 14.5379C17.5383 13.6237 16.2118 13.1017 15.0509 12.9567C14.3722 12.8719 14.2521 12.9638 14.0277 13.7384C13.5386 15.4274 13.5291 17.1606 14.0021 18.4047C14.0869 18.628 14.054 18.7016 13.6423 19.2088C12.2683 20.9017 11.6788 23.2521 11.9436 25.9825C12.4529 31.2325 15.2943 34.0915 20.7723 34.8652C21.3354 34.9448 21.5603 34.9658 21.5833 35.0451C21.6002 35.1041 21.5057 35.1951 21.3555 35.3663C20.9718 35.8033 20.5161 36.7661 20.3723 37.4442L20.257 37.9874L19.7241 38.1674C17.2965 38.9872 15.5027 38.4007 14.0134 36.3004C12.6996 34.4472 11.1919 33.6054 10.045 34.0846C9.55066 34.2911 9.7876 34.754 10.6449 35.2564C11.452 35.7295 12.2668 36.8765 13.1459 38.7774C14.0345 40.6991 17.0198 41.621 19.9929 40.8917L20.1989 40.8411L20.1721 43.1343L20.1453 45.4275L19.913 45.6595C19.2837 46.2885 17.6554 45.8636 15.0323 44.3858Z" fill="#E2E2E2"/>
</svg>
