<svg width="51" height="51" viewBox="0 0 51 51" fill="none" xmlns="http://www.w3.org/2000/svg">
<path fill-rule="evenodd" clip-rule="evenodd" d="M15 0C6.71573 0 0 6.71573 0 15V36C0 44.2843 6.71573 51 15 51H36C44.2843 51 51 44.2843 51 36V15C51 6.71573 44.2843 0 36 0H15ZM32.5014 10.2489C30.575 10.161 29.9973 10.1425 25.1193 10.1425C20.2414 10.1425 19.6636 10.161 17.7372 10.2489C15.9561 10.3302 14.9888 10.6278 14.345 10.8779C13.4923 11.2093 12.8837 11.6053 12.2444 12.2445C11.6052 12.8838 11.2092 13.4924 10.8779 14.3451C10.6277 14.9889 10.3301 15.9562 10.2488 17.7374C10.1609 19.6637 10.1424 20.2415 10.1424 25.1194C10.1424 29.9974 10.1609 30.5751 10.2488 32.5016C10.3301 34.2827 10.6277 35.25 10.8779 35.8938C11.2092 36.7465 11.6052 37.3551 12.2444 37.9943C12.8837 38.6336 13.4923 39.0295 14.345 39.3609C14.9888 39.611 15.9561 39.9087 17.7373 39.99C19.6633 40.0778 20.2411 40.0964 25.1193 40.0964C29.9976 40.0964 30.5753 40.0778 32.5014 39.99C34.2826 39.9087 35.2499 39.611 35.8937 39.3609C36.7464 39.0295 37.355 38.6336 37.9942 37.9943C38.6335 37.3551 39.0294 36.7465 39.3608 35.8938C39.6109 35.25 39.9086 34.2827 39.9898 32.5015C40.0777 30.5751 40.0963 29.9974 40.0963 25.1194C40.0963 20.2415 40.0777 19.6637 39.9898 17.7373C39.9086 15.9562 39.6109 14.9889 39.3608 14.3451C39.0294 13.4924 38.6335 12.8838 37.9942 12.2445C37.355 11.6053 36.7464 11.2093 35.8937 10.8779C35.2499 10.6278 34.2826 10.3302 32.5014 10.2489ZM17.5872 6.96068C19.5358 6.87177 20.1578 6.85074 25.1193 6.85074C30.0808 6.85074 30.703 6.87177 32.6514 6.96068C34.596 7.04944 35.9239 7.35822 37.086 7.80986C38.2874 8.27672 39.3062 8.90139 40.3218 9.917C41.3374 10.9326 41.962 11.9514 42.4289 13.1527C42.8805 14.3148 43.1893 15.6428 43.2781 17.5873C43.367 19.5358 43.388 20.1579 43.388 25.1194C43.388 30.0809 43.367 30.7031 43.2781 32.6515C43.1893 34.5961 42.8805 35.924 42.4289 37.0861C41.962 38.2875 41.3374 39.3063 40.3218 40.3219C39.3062 41.3375 38.2874 41.9621 37.086 42.429C35.9239 42.8806 34.596 43.1894 32.6514 43.2782C30.703 43.3671 30.0808 43.3881 25.1193 43.3881C20.1578 43.3881 19.5358 43.3671 17.5872 43.2782C15.6427 43.1894 14.3147 42.8806 13.1526 42.429C11.9513 41.9621 10.9325 41.3375 9.91689 40.3219C8.90129 39.3063 8.27662 38.2874 7.80975 37.0861C7.35811 35.924 7.04933 34.5961 6.96057 32.6515C6.87167 30.7031 6.85071 30.0809 6.85071 25.1194C6.85071 20.1579 6.87167 19.5358 6.96057 17.5873C7.04933 15.6428 7.35811 14.3148 7.80975 13.1527C8.27662 11.9514 8.90129 10.9326 9.91689 9.917C10.9325 8.90139 11.9513 8.27672 13.1526 7.80986C14.3147 7.35822 15.6427 7.04944 17.5872 6.96068ZM15.7381 25.1194C15.7381 19.9383 19.9382 15.7382 25.1193 15.7382C30.3004 15.7382 34.5006 19.9383 34.5006 25.1194C34.5006 30.3005 30.3004 34.5007 25.1193 34.5007C19.9382 34.5007 15.7381 30.3005 15.7381 25.1194ZM19.0297 25.1194C19.0297 28.4826 21.7562 31.209 25.1193 31.209C28.4825 31.209 31.2089 28.4826 31.2089 25.1194C31.2089 21.7563 28.4825 19.0298 25.1193 19.0298C21.7562 19.0298 19.0297 21.7563 19.0297 25.1194ZM34.8712 17.5598C36.082 17.5598 37.0634 16.5783 37.0634 15.3676C37.0634 14.1568 36.082 13.1754 34.8712 13.1754C33.6604 13.1754 32.6789 14.1568 32.6789 15.3676C32.6789 16.5783 33.6604 17.5598 34.8712 17.5598Z" fill="#E2E2E2"/>
</svg>
