<svg width="200" height="65" viewBox="0 0 200 65" fill="none" xmlns="http://www.w3.org/2000/svg">
<path fill-rule="evenodd" clip-rule="evenodd" d="M0 0H8.03709H8.96445H25.6569V9.58269H8.96445V26.8934H23.493V36.4761H8.96445V54.7141H26.2751V64.2968H8.96445H8.65533H0V0ZM37.7125 0C35.085 0 32.4575 2.62751 32.4575 4.63679V59.66C32.4575 61.6693 35.085 64.2968 37.7125 64.2968H59.0417C61.6692 64.2968 64.2968 61.6693 64.2968 59.66V42.3493H55.3323V54.7141H42.3493V9.58269H55.3323V21.9475H64.2968V4.63679C64.2968 2.62751 61.6692 0 59.0417 0H37.7125ZM80.0618 0H72.0247V64.2968H80.6801H80.9892H98.2999H107.11L97.527 54.7141H80.9892V36.4761H95.5178V26.8934H80.9892V9.58269H97.6816V0H80.9892H80.0618ZM101.899 54.7141L111.481 64.2968H200V54.7141H101.899ZM120.247 0.618237H114.374V41.7845H114.377C114.458 43.2652 116.227 45.1314 117.997 45.1314H132.699C134.468 45.1314 136.238 43.2652 136.319 41.7845H136.321V41.6801V0.618237H130.139V37.9985H120.247V0.618237ZM145.097 0.618237C143.377 0.618237 141.658 2.34198 141.579 3.70943H141.577V3.80603V14.8377V17.0016L157.032 30.2937V38.234H148.068V30.2937H141.577V41.6343V42.0402H141.623C141.913 43.3447 143.505 44.8223 145.097 44.8223H159.385C161.105 44.8223 162.824 43.0986 162.903 41.7311H162.906V41.6343V30.2937V28.7481V28.1298L148.068 14.8377V7.20634H156.9V15.7071H162.906V3.80603C162.906 2.42466 161.146 0.618259 159.385 0.618237H145.097ZM172.299 0.618237C170.539 0.618237 168.779 2.42465 168.779 3.80603V41.6343C168.779 43.0158 170.539 44.8223 172.299 44.8223H186.588C188.348 44.8223 190.108 43.0158 190.108 41.6343V29.7334H184.103V38.234H175.406V7.20634H184.103V15.7071H190.108V3.80603C190.108 2.42466 188.348 0.618259 186.588 0.618237H172.299Z" fill="#E2E2E2"/>
</svg>
