<svg width="51" height="51" viewBox="0 0 51 51" fill="none" xmlns="http://www.w3.org/2000/svg">
<path fill-rule="evenodd" clip-rule="evenodd" d="M15 0C6.71573 0 0 6.71573 0 15V36C0 44.2843 6.71573 51 15 51H36C44.2843 51 51 44.2843 51 36V15C51 6.71573 44.2843 0 36 0H15ZM4.97731 32.0409C0.977449 19.0899 9.43212 5.84878 22.7963 4.13404C30.1839 3.18611 37.7469 6.26319 42.3722 12.0986C50.4218 22.2541 47.6688 37.4212 36.586 43.9779C24.617 51.0589 9.03318 45.1737 4.97731 32.0409ZM35.9056 16.4595C37.2302 15.3257 36.8218 13.1739 35.1755 12.613C34.247 12.2965 33.1209 12.6679 32.6376 13.45C32.515 13.6485 32.4072 13.7344 32.3151 13.7076C31.8401 13.5685 27.3315 12.6504 27.1237 12.6504C26.6599 12.6504 26.6265 12.7512 25.7879 16.6923C25.3524 18.7391 24.9961 20.4393 24.9961 20.4706C24.9962 20.5019 24.6843 20.5524 24.3032 20.5829C21.6377 20.7967 19.0969 21.5736 17.1922 22.7573L16.4656 23.209L16.1766 22.9675C14.7564 21.782 12.2962 22.3852 11.4813 24.1188C10.8087 25.5499 11.2635 27.2508 12.5459 28.1002L12.9418 28.3625L12.9538 29.3038C13.044 36.3613 24.188 40.4744 32.5438 36.5344C36.0357 34.8879 38.0077 32.2823 38.0448 29.2659L38.0557 28.3708L38.4734 28.0902C39.8712 27.1509 40.258 25.2432 39.3428 23.8016C38.3852 22.2934 36.255 21.8813 34.8723 22.9367L34.5109 23.2125L33.9318 22.8378C32.1423 21.6798 29.7595 20.9039 27.1377 20.6255C26.6297 20.5716 26.2065 20.5208 26.1976 20.5129C26.0847 20.4123 27.5983 13.953 27.7337 13.9576C27.8216 13.9606 28.8597 14.1672 30.0406 14.4167L32.1876 14.8703L32.2849 15.2799C32.6669 16.8876 34.6505 17.5338 35.9056 16.4595ZM19.0293 29.2832C17.8557 28.1098 18.317 26.215 19.9144 25.6467C21.4919 25.0856 23.1666 26.6762 22.697 28.2894C22.2129 29.9519 20.234 30.4881 19.0293 29.2832ZM28.274 28.1975C28.0151 27.1188 28.7525 25.9132 29.8522 25.6172C32.0138 25.0351 33.554 27.7002 31.9708 29.2832C30.7435 30.5107 28.6838 29.9058 28.274 28.1975ZM20.412 33.799C20.0149 33.4331 19.9565 33.2167 20.1718 32.9093C20.3694 32.6271 20.7246 32.6684 21.1951 33.0282C23.1547 34.5265 27.853 34.527 29.805 33.0293C30.6683 32.3669 31.4156 33.0159 30.648 33.7615C28.6312 35.7203 22.5207 35.7428 20.412 33.799Z" fill="#E2E2E2"/>
</svg>
