<svg width="126" height="47" viewBox="0 -5 126 52" fill="none" xmlns="http://www.w3.org/2000/svg">
<path fill-rule="evenodd" clip-rule="evenodd" d="M23.5 0C10.5213 0 0 10.5213 0 23.5C0 36.4787 10.5213 47 23.5 47H102.5C115.479 47 126 36.4787 126 23.5C126 10.5213 115.479 0 102.5 0H23.5ZM12.9114 30.692C13.7767 31.0733 14.7741 31.264 15.9034 31.264C17.0767 31.264 18.0667 31.0587 18.8734 30.648C19.6801 30.2227 20.2887 29.6653 20.6994 28.976C21.1101 28.2867 21.3154 27.5387 21.3154 26.732C21.3154 25.8227 21.1247 25.082 20.7434 24.51C20.3621 23.9233 19.8561 23.454 19.2254 23.102C18.5947 22.75 17.8981 22.442 17.1354 22.178C16.4167 21.9433 15.7787 21.7233 15.2214 21.518C14.6641 21.3127 14.2241 21.0633 13.9014 20.77C13.5787 20.462 13.4174 20.0513 13.4174 19.538C13.4174 18.9367 13.6227 18.482 14.0334 18.174C14.4587 17.8513 14.9794 17.6973 15.5954 17.712C16.3141 17.712 16.8714 17.9247 17.2674 18.35C17.6781 18.7607 17.8907 19.2373 17.9054 19.78H20.9194C20.8901 18.8707 20.6481 18.086 20.1934 17.426C19.7534 16.766 19.1374 16.2527 18.3454 15.886C17.5681 15.5193 16.6661 15.336 15.6394 15.336C14.6274 15.336 13.7327 15.5193 12.9554 15.886C12.1781 16.238 11.5621 16.744 11.1074 17.404C10.6674 18.0493 10.4547 18.8267 10.4694 19.736C10.4694 20.8067 10.7774 21.6647 11.3934 22.31C12.0241 22.9553 12.9334 23.4833 14.1214 23.894C14.8547 24.1433 15.5441 24.378 16.1894 24.598C16.8347 24.818 17.3481 25.104 17.7294 25.456C18.1254 25.808 18.3234 26.2993 18.3234 26.93C18.3234 27.5313 18.1034 28.0153 17.6634 28.382C17.2234 28.734 16.6294 28.91 15.8814 28.91C15.0161 28.91 14.3341 28.668 13.8354 28.184C13.3514 27.6853 13.0947 27.0767 13.0654 26.358H10.0954C10.1101 27.3993 10.3667 28.2867 10.8654 29.02C11.3641 29.7387 12.0461 30.296 12.9114 30.692ZM24.6304 29.988C25.3784 30.8387 26.4344 31.264 27.7984 31.264C28.649 31.264 29.3897 31.0733 30.0204 30.692C30.6657 30.3107 31.157 29.7973 31.4944 29.152L31.7144 31H34.2004V20.088H31.3844V25.72C31.3844 26.7173 31.1277 27.4947 30.6144 28.052C30.1157 28.6093 29.4777 28.888 28.7004 28.888C27.879 28.888 27.2777 28.6387 26.8964 28.14C26.515 27.6413 26.3244 26.9227 26.3244 25.984V20.088H23.5304V26.248C23.5304 27.8907 23.897 29.1373 24.6304 29.988ZM41.4031 30.802C42.0191 31.11 42.7378 31.264 43.5591 31.264C44.5858 31.264 45.5025 31.022 46.3091 30.538C47.1158 30.0393 47.7538 29.3647 48.2231 28.514C48.6925 27.6487 48.9271 26.666 48.9271 25.566C48.9271 24.466 48.6925 23.4833 48.2231 22.618C47.7538 21.7527 47.1158 21.0707 46.3091 20.572C45.5025 20.0733 44.5858 19.824 43.5591 19.824C42.6351 19.824 41.8798 20.0073 41.2931 20.374C40.7211 20.7407 40.2591 21.166 39.9071 21.65V15.16H37.0911V31H39.5991L39.9071 29.504C40.2885 30.0613 40.7871 30.494 41.4031 30.802ZM45.1871 27.898C44.6005 28.4993 43.8598 28.8 42.9651 28.8C42.0558 28.8 41.3078 28.4993 40.7211 27.898C40.1491 27.282 39.8631 26.4973 39.8631 25.544C39.8631 24.5907 40.1491 23.8133 40.7211 23.212C41.3078 22.596 42.0558 22.288 42.9651 22.288C43.8598 22.288 44.6005 22.596 45.1871 23.212C45.7738 23.828 46.0671 24.6127 46.0671 25.566C46.0671 26.5193 45.7738 27.2967 45.1871 27.898ZM53.4007 30.802C54.134 31.11 54.9847 31.264 55.9527 31.264C56.8914 31.264 57.7054 31.11 58.3947 30.802C59.084 30.494 59.612 30.0687 59.9787 29.526C60.3454 28.9833 60.5214 28.3747 60.5067 27.7C60.5067 26.9227 60.316 26.3287 59.9347 25.918C59.5534 25.4927 59.04 25.1773 58.3947 24.972C57.764 24.752 57.0674 24.554 56.3047 24.378C55.6007 24.2167 55.036 24.0407 54.6107 23.85C54.1854 23.6593 53.9727 23.4027 53.9727 23.08C53.9727 22.772 54.112 22.5153 54.3907 22.31C54.684 22.1047 55.0947 22.002 55.6227 22.002C56.6787 22.002 57.2874 22.4053 57.4487 23.212H60.1107C59.964 22.156 59.502 21.3273 58.7247 20.726C57.962 20.1247 56.9354 19.824 55.6447 19.824C54.2514 19.824 53.166 20.154 52.3887 20.814C51.626 21.474 51.2447 22.288 51.2447 23.256C51.2447 23.784 51.3694 24.2313 51.6187 24.598C51.868 24.95 52.1907 25.2433 52.5867 25.478C52.9974 25.698 53.4447 25.8813 53.9287 26.028C54.4127 26.1747 54.8894 26.2993 55.3587 26.402C56.092 26.5633 56.664 26.732 57.0747 26.908C57.4854 27.0693 57.6907 27.3847 57.6907 27.854C57.6907 28.1767 57.544 28.4627 57.2507 28.712C56.972 28.9613 56.5247 29.086 55.9087 29.086C55.2927 29.086 54.7867 28.9393 54.3907 28.646C54.0094 28.338 53.7747 27.9713 53.6867 27.546H50.8487C50.9367 28.2793 51.2007 28.9247 51.6407 29.482C52.0807 30.0393 52.6674 30.4793 53.4007 30.802ZM65.3993 30.538C66.25 31.022 67.2326 31.264 68.3473 31.264C69.7406 31.264 70.914 30.89 71.8673 30.142C72.8206 29.394 73.4293 28.404 73.6933 27.172H70.7233C70.5766 27.7147 70.2833 28.1327 69.8433 28.426C69.418 28.7193 68.912 28.866 68.3253 28.866C67.548 28.866 66.888 28.5727 66.3453 27.986C65.8026 27.3993 65.5313 26.5853 65.5313 25.544C65.5313 24.5027 65.8026 23.6887 66.3453 23.102C66.888 22.5153 67.548 22.222 68.3253 22.222C68.912 22.222 69.418 22.376 69.8433 22.684C70.2833 22.9773 70.5766 23.388 70.7233 23.916H73.6933C73.4293 22.64 72.8206 21.6427 71.8673 20.924C70.914 20.1907 69.7406 19.824 68.3473 19.824C67.2326 19.824 66.25 20.066 65.3993 20.55C64.5486 21.034 63.874 21.7087 63.3753 22.574C62.8913 23.4393 62.6493 24.4293 62.6493 25.544C62.6493 26.6587 62.8913 27.6487 63.3753 28.514C63.874 29.3793 64.5486 30.054 65.3993 30.538ZM76.1927 20.088V31H79.0087V26.028C79.0087 25.192 79.1407 24.5393 79.4047 24.07C79.6834 23.6007 80.0647 23.2707 80.5487 23.08C81.0327 22.8893 81.5827 22.794 82.1987 22.794H82.9907V19.824C82.0667 19.824 81.26 20.0367 80.5707 20.462C79.896 20.8727 79.3607 21.43 78.9647 22.134L78.7007 20.088H76.1927ZM85.1573 17.932C85.4947 18.24 85.92 18.394 86.4333 18.394C86.9467 18.394 87.3647 18.24 87.6874 17.932C88.0247 17.624 88.1934 17.2353 88.1934 16.766C88.1934 16.2967 88.0247 15.9153 87.6874 15.622C87.3647 15.314 86.9467 15.16 86.4333 15.16C85.92 15.16 85.4947 15.314 85.1573 15.622C84.8347 15.9153 84.6734 16.2967 84.6734 16.766C84.6734 17.2353 84.8347 17.624 85.1573 17.932ZM85.0254 20.088V31H87.8414V20.088H85.0254ZM95.0926 30.802C95.7086 31.11 96.4273 31.264 97.2486 31.264C98.2753 31.264 99.1919 31.022 99.9986 30.538C100.805 30.0393 101.443 29.3647 101.913 28.514C102.382 27.6487 102.617 26.666 102.617 25.566C102.617 24.466 102.382 23.4833 101.913 22.618C101.443 21.7527 100.805 21.0707 99.9986 20.572C99.1919 20.0733 98.2753 19.824 97.2486 19.824C96.3246 19.824 95.5693 20.0073 94.9826 20.374C94.4106 20.7407 93.9486 21.166 93.5966 21.65V15.16H90.7806V31H93.2886L93.5966 29.504C93.9779 30.0613 94.4766 30.494 95.0926 30.802ZM98.8766 27.898C98.2899 28.4993 97.5493 28.8 96.6546 28.8C95.7453 28.8 94.9973 28.4993 94.4106 27.898C93.8386 27.282 93.5526 26.4973 93.5526 25.544C93.5526 24.5907 93.8386 23.8133 94.4106 23.212C94.9973 22.596 95.7453 22.288 96.6546 22.288C97.5493 22.288 98.2899 22.596 98.8766 23.212C99.4633 23.828 99.7566 24.6127 99.7566 25.566C99.7566 26.5193 99.4633 27.2967 98.8766 27.898ZM107.508 30.56C108.359 31.0293 109.334 31.264 110.434 31.264C111.314 31.264 112.099 31.1027 112.788 30.78C113.492 30.4573 114.079 30.0173 114.548 29.46C115.032 28.888 115.377 28.2573 115.582 27.568H112.722C112.531 27.9787 112.238 28.316 111.842 28.58C111.461 28.8293 110.984 28.954 110.412 28.954C109.649 28.954 108.997 28.712 108.454 28.228C107.926 27.744 107.633 27.0767 107.574 26.226H115.868C115.883 26.0353 115.89 25.852 115.89 25.676C115.905 25.5 115.912 25.3313 115.912 25.17C115.912 24.1727 115.677 23.2707 115.208 22.464C114.753 21.6427 114.115 20.9973 113.294 20.528C112.473 20.0587 111.527 19.824 110.456 19.824C109.312 19.824 108.315 20.0733 107.464 20.572C106.628 21.056 105.968 21.738 105.484 22.618C105.015 23.498 104.78 24.5027 104.78 25.632C104.78 26.7467 105.022 27.7293 105.506 28.58C105.99 29.4307 106.657 30.0907 107.508 30.56ZM108.63 22.706C109.158 22.31 109.767 22.112 110.456 22.112C111.175 22.112 111.776 22.3247 112.26 22.75C112.744 23.1753 113.008 23.7473 113.052 24.466H107.618C107.765 23.674 108.102 23.0873 108.63 22.706Z" fill="#191919"/>
</svg>
